<?xml version="1.0" encoding="UTF-8" standalone="no"?>
<svg
   xmlns:dc="http://purl.org/dc/elements/1.1/"
   xmlns:cc="http://creativecommons.org/ns#"
   xmlns:rdf="http://www.w3.org/1999/02/22-rdf-syntax-ns#"
   xmlns:svg="http://www.w3.org/2000/svg"
   xmlns="http://www.w3.org/2000/svg"
   xmlns:xlink="http://www.w3.org/1999/xlink"
   xmlns:sodipodi="http://sodipodi.sourceforge.net/DTD/sodipodi-0.dtd"
   xmlns:inkscape="http://www.inkscape.org/namespaces/inkscape"
   version="1.0"
   viewBox="0 0 595.805 300.224"
   id="svg4377"
   sodipodi:docname="dna-single-stranded-ribbon_nz.svg"
   width="595.80499"
   height="300.224"
   inkscape:version="0.92.4 (5da689c313, 2019-01-14)"
   inkscape:export-filename="C:\Users\mikem\OneDrive\Bilder\bitmap.png"
   inkscape:export-xdpi="300"
   inkscape:export-ydpi="300">
  <metadata
     id="metadata4381">
    <rdf:RDF>
      <cc:Work
         rdf:about="">
        <dc:format>image/svg+xml</dc:format>
        <dc:type
           rdf:resource="http://purl.org/dc/dcmitype/StillImage" />
        <dc:title></dc:title>
      </cc:Work>
    </rdf:RDF>
  </metadata>
  <sodipodi:namedview
     pagecolor="#ffffff"
     bordercolor="#666666"
     borderopacity="1"
     objecttolerance="10"
     gridtolerance="10"
     guidetolerance="10"
     inkscape:pageopacity="0"
     inkscape:pageshadow="2"
     inkscape:window-width="2009"
     inkscape:window-height="1408"
     id="namedview4379"
     showgrid="false"
     inkscape:zoom="1.7018991"
     inkscape:cx="295.77966"
     inkscape:cy="114.25085"
     inkscape:window-x="1817"
     inkscape:window-y="0"
     inkscape:window-maximized="0"
     inkscape:current-layer="layer2"
     showguides="false" />
  <defs
     id="defs4051">
    <linearGradient
       inkscape:collect="always"
       id="linearGradient15505">
      <stop
         style="stop-color:#000000;stop-opacity:1;"
         offset="0"
         id="stop15501" />
      <stop
         style="stop-color:#000000;stop-opacity:0;"
         offset="1"
         id="stop15503" />
    </linearGradient>
    <linearGradient
       inkscape:collect="always"
       id="linearGradient15497">
      <stop
         style="stop-color:#ff1d6c;stop-opacity:1;"
         offset="0"
         id="stop15493" />
      <stop
         style="stop-color:#ff1d6c;stop-opacity:0;"
         offset="1"
         id="stop15495" />
    </linearGradient>
    <pattern
       inkscape:collect="always"
       xlink:href="#Polkadots-smallwhite"
       id="pattern13871"
       patternTransform="matrix(10,0,0,10,-154.52796,-21.152851)" />
    <pattern
       inkscape:collect="always"
       xlink:href="#Polkadots-smallwhite"
       id="pattern13023"
       patternTransform="matrix(10,0,0,10,-2.3330688e-8,-1.8136406e-6)" />
    <pattern
       inkscape:isstock="true"
       inkscape:stockid="Polka dots, small white"
       id="Polkadots-smallwhite"
       patternTransform="translate(0,0) scale(10,10)"
       height="10"
       width="10"
       patternUnits="userSpaceOnUse"
       inkscape:collect="always">
      <circle
         id="circle12347"
         r="0.05"
         cy="0.810"
         cx="2.567"
         style="fill:white;stroke:none" />
      <circle
         id="circle12349"
         r="0.05"
         cy="2.33"
         cx="3.048"
         style="fill:white;stroke:none" />
      <circle
         id="circle12351"
         r="0.05"
         cy="2.415"
         cx="4.418"
         style="fill:white;stroke:none" />
      <circle
         id="circle12353"
         r="0.05"
         cy="3.029"
         cx="1.844"
         style="fill:white;stroke:none" />
      <circle
         id="circle12355"
         r="0.05"
         cy="1.363"
         cx="6.08"
         style="fill:white;stroke:none" />
      <circle
         id="circle12357"
         r="0.05"
         cy="4.413"
         cx="5.819"
         style="fill:white;stroke:none" />
      <circle
         id="circle12359"
         r="0.05"
         cy="4.048"
         cx="4.305"
         style="fill:white;stroke:none" />
      <circle
         id="circle12361"
         r="0.05"
         cy="3.045"
         cx="5.541"
         style="fill:white;stroke:none" />
      <circle
         id="circle12363"
         r="0.05"
         cy="5.527"
         cx="4.785"
         style="fill:white;stroke:none" />
      <circle
         id="circle12365"
         r="0.05"
         cy="5.184"
         cx="2.667"
         style="fill:white;stroke:none" />
      <circle
         id="circle12367"
         r="0.05"
         cy="1.448"
         cx="7.965"
         style="fill:white;stroke:none" />
      <circle
         id="circle12369"
         r="0.05"
         cy="5.049"
         cx="7.047"
         style="fill:white;stroke:none" />
      <circle
         id="circle12371"
         r="0.05"
         cy="0.895"
         cx="4.340"
         style="fill:white;stroke:none" />
      <circle
         id="circle12373"
         r="0.05"
         cy="0.340"
         cx="7.125"
         style="fill:white;stroke:none" />
      <circle
         id="circle12375"
         r="0.05"
         cy="1.049"
         cx="9.553"
         style="fill:white;stroke:none" />
      <circle
         id="circle12377"
         r="0.05"
         cy="2.689"
         cx="7.006"
         style="fill:white;stroke:none" />
      <circle
         id="circle12379"
         r="0.05"
         cy="2.689"
         cx="8.909"
         style="fill:white;stroke:none" />
      <circle
         id="circle12381"
         r="0.05"
         cy="4.407"
         cx="9.315"
         style="fill:white;stroke:none" />
      <circle
         id="circle12383"
         r="0.05"
         cy="3.870"
         cx="7.820"
         style="fill:white;stroke:none" />
      <circle
         id="circle12385"
         r="0.05"
         cy="5.948"
         cx="8.270"
         style="fill:white;stroke:none" />
      <circle
         id="circle12387"
         r="0.05"
         cy="7.428"
         cx="7.973"
         style="fill:white;stroke:none" />
      <circle
         id="circle12389"
         r="0.05"
         cy="8.072"
         cx="9.342"
         style="fill:white;stroke:none" />
      <circle
         id="circle12391"
         r="0.05"
         cy="9.315"
         cx="8.206"
         style="fill:white;stroke:none" />
      <circle
         id="circle12393"
         r="0.05"
         cy="9.475"
         cx="9.682"
         style="fill:white;stroke:none" />
      <circle
         id="circle12395"
         r="0.05"
         cy="6.186"
         cx="9.688"
         style="fill:white;stroke:none" />
      <circle
         id="circle12397"
         r="0.05"
         cy="6.296"
         cx="3.379"
         style="fill:white;stroke:none" />
      <circle
         id="circle12399"
         r="0.05"
         cy="8.204"
         cx="2.871"
         style="fill:white;stroke:none" />
      <circle
         id="circle12401"
         r="0.05"
         cy="8.719"
         cx="4.59"
         style="fill:white;stroke:none" />
      <circle
         id="circle12403"
         r="0.05"
         cy="9.671"
         cx="3.181"
         style="fill:white;stroke:none" />
      <circle
         id="circle12405"
         r="0.05"
         cy="7.315"
         cx="5.734"
         style="fill:white;stroke:none" />
      <circle
         id="circle12407"
         r="0.05"
         cy="6.513"
         cx="6.707"
         style="fill:white;stroke:none" />
      <circle
         id="circle12409"
         r="0.05"
         cy="9.670"
         cx="5.730"
         style="fill:white;stroke:none" />
      <circle
         id="circle12411"
         r="0.05"
         cy="8.373"
         cx="6.535"
         style="fill:white;stroke:none" />
      <circle
         id="circle12413"
         r="0.05"
         cy="7.154"
         cx="4.37"
         style="fill:white;stroke:none" />
      <circle
         id="circle12415"
         r="0.05"
         cy="7.25"
         cx="0.622"
         style="fill:white;stroke:none" />
      <circle
         id="circle12417"
         r="0.05"
         cy="5.679"
         cx="0.831"
         style="fill:white;stroke:none" />
      <circle
         id="circle12419"
         r="0.05"
         cy="8.519"
         cx="1.257"
         style="fill:white;stroke:none" />
      <circle
         id="circle12421"
         r="0.05"
         cy="6.877"
         cx="1.989"
         style="fill:white;stroke:none" />
      <circle
         id="circle12423"
         r="0.05"
         cy="3.181"
         cx="0.374"
         style="fill:white;stroke:none" />
      <circle
         id="circle12425"
         r="0.05"
         cy="1.664"
         cx="1.166"
         style="fill:white;stroke:none" />
      <circle
         id="circle12427"
         r="0.05"
         cy="0.093"
         cx="1.151"
         style="fill:white;stroke:none" />
      <circle
         id="circle12429"
         r="0.05"
         cy="10.093"
         cx="1.151"
         style="fill:white;stroke:none" />
      <circle
         id="circle12431"
         r="0.05"
         cy="4.451"
         cx="1.302"
         style="fill:white;stroke:none" />
      <circle
         id="circle12433"
         r="0.05"
         cy="3.763"
         cx="3.047"
         style="fill:white;stroke:none" />
    </pattern>
    <inkscape:path-effect
       bendpath3-nodetypes="cssc"
       bendpath1-nodetypes="csc"
       bendpath4="M 122.0729,51.932628 V 136.91701"
       bendpath3="m 128.91286,136.71394 c 22.81945,9.8234 54.87489,-0.52179 102.09278,-21.41974 32.19291,-14.24812 54.48172,11.88451 88.06357,17.86478 55.15447,9.82193 111.30733,-12.17043 143.57462,-15.63207"
       bendpath2="M 463.81899,51.932628 V 136.91701"
       bendpath1="m 122.0729,51.932628 c 53.58238,2.860454 33.66816,-6.023218 107.70497,-24.119524 41.2685,-10.086975 76.7301,45.682346 232.86596,0.616368"
       xx="true"
       yy="true"
       is_visible="true"
       id="path-effect11244"
       effect="envelope" />
    <inkscape:path-effect
       effect="perspective-envelope"
       up_left_point="0,200.95198"
       up_right_point="595.805,199.77682"
       down_left_point="-332.9294,300.224"
       down_right_point="844.61575,303.89204"
       id="path-effect9501"
       is_visible="true"
       deform_type="perspective"
       horizontal_mirror="false"
       vertical_mirror="false"
       overflow_perspective="false" />
    <inkscape:path-effect
       effect="envelope"
       id="path-effect6592"
       is_visible="true"
       yy="true"
       xx="true"
       bendpath1="m 122.0729,51.932628 c 53.58238,2.860454 33.66816,-6.023218 107.70497,-24.119524 41.2685,-10.086975 76.7301,45.682346 232.86596,0.616368"
       bendpath2="M 463.81899,51.932628 V 136.91701"
       bendpath3="m 128.91286,136.71394 c 22.81945,9.8234 54.87489,-0.52179 102.09278,-21.41974 32.19291,-14.24812 54.48172,11.88451 88.06357,17.86478 55.15447,9.82193 111.30733,-12.17043 143.57462,-15.63207"
       bendpath4="M 122.0729,51.932628 V 136.91701"
       bendpath1-nodetypes="csc"
       bendpath3-nodetypes="cssc" />
    <clipPath
       clipPathUnits="userSpaceOnUse"
       id="a">
      <path
         d="M -0.24,-0.24 H 594.92 V 142.074 H -0.24 Z"
         id="path4048"
         inkscape:connector-curvature="0" />
    </clipPath>
    <clipPath
       clipPathUnits="userSpaceOnUse"
       id="a-6">
      <path
         inkscape:connector-curvature="0"
         d="M -0.24,-0.24 H 594.92 V 142.074 H -0.24 Z"
         id="path4048-8" />
    </clipPath>
    <clipPath
       clipPathUnits="userSpaceOnUse"
       id="clipPath7748">
      <path
         inkscape:connector-curvature="0"
         d="M -0.24,-0.24 H 594.92 V 142.074 H -0.24 Z"
         id="path7746" />
    </clipPath>
    <clipPath
       clipPathUnits="userSpaceOnUse"
       id="clipPath7752">
      <path
         inkscape:connector-curvature="0"
         d="M -0.24,-0.24 H 594.92 V 142.074 H -0.24 Z"
         id="path7750" />
    </clipPath>
    <clipPath
       clipPathUnits="userSpaceOnUse"
       id="clipPath8259">
      <rect
         style="fill:#ff1d6c;fill-opacity:0.36231887;stroke-width:1.07474661"
         id="rect8261"
         width="243.25766"
         height="126.91704"
         x="-111.63998"
         y="24.120647" />
    </clipPath>
    <clipPath
       clipPathUnits="userSpaceOnUse"
       id="clipPath8269">
      <rect
         style="fill:#ff1d6c;fill-opacity:0.36231887;stroke-width:3.80306125"
         id="rect8271"
         width="117.51577"
         height="150.4202"
         x="476.43143"
         y="23.135637" />
    </clipPath>
    <clipPath
       clipPathUnits="userSpaceOnUse"
       id="clipPath8269-8">
      <rect
         style="fill:#ff1d6c;fill-opacity:0.36231887;stroke-width:3.80306125"
         id="rect8271-6"
         width="117.51577"
         height="150.4202"
         x="476.43143"
         y="23.135637" />
    </clipPath>
    <clipPath
       clipPathUnits="userSpaceOnUse"
       id="a-6-7">
      <path
         inkscape:connector-curvature="0"
         d="M -0.24,-0.24 H 594.92 V 142.074 H -0.24 Z"
         id="path4048-8-2" />
    </clipPath>
    <clipPath
       clipPathUnits="userSpaceOnUse"
       id="clipPath8458">
      <path
         inkscape:connector-curvature="0"
         d="M -0.24,-0.24 H 594.92 V 142.074 H -0.24 Z"
         id="path8456" />
    </clipPath>
    <clipPath
       clipPathUnits="userSpaceOnUse"
       id="clipPath8462">
      <path
         inkscape:connector-curvature="0"
         d="M -0.24,-0.24 H 594.92 V 142.074 H -0.24 Z"
         id="path8460" />
    </clipPath>
    <inkscape:path-effect
       effect="envelope"
       id="path-effect6592-4"
       is_visible="true"
       yy="true"
       xx="true"
       bendpath1="m 122.0729,51.932628 c 53.58238,2.860454 33.66816,-6.023218 107.70497,-24.119524 41.2685,-10.086975 76.7301,45.682346 232.86596,0.616368"
       bendpath2="M 463.81899,51.932628 V 136.91701"
       bendpath3="m 128.91286,136.71394 c 22.81945,9.8234 54.87489,-0.52179 102.09278,-21.41974 32.19291,-14.24812 54.48172,11.88451 88.06357,17.86478 55.15447,9.82193 111.30733,-12.17043 143.57462,-15.63207"
       bendpath4="M 122.0729,51.932628 V 136.91701"
       bendpath1-nodetypes="csc"
       bendpath3-nodetypes="cssc" />
    <clipPath
       clipPathUnits="userSpaceOnUse"
       id="clipPath8259-6">
      <rect
         style="fill:#ff1d6c;fill-opacity:0.36231887;stroke-width:1.07474661"
         id="rect8261-1"
         width="243.25766"
         height="126.91704"
         x="-111.63998"
         y="24.120647" />
    </clipPath>
    <clipPath
       clipPathUnits="userSpaceOnUse"
       id="a-60">
      <path
         d="M -0.24,-0.24 H 594.92 V 142.074 H -0.24 Z"
         id="path4048-2"
         inkscape:connector-curvature="0" />
    </clipPath>
    <clipPath
       clipPathUnits="userSpaceOnUse"
       id="clipPath8471">
      <path
         d="M -0.24,-0.24 H 594.92 V 142.074 H -0.24 Z"
         id="path8469"
         inkscape:connector-curvature="0" />
    </clipPath>
    <clipPath
       clipPathUnits="userSpaceOnUse"
       id="clipPath8475">
      <path
         d="M -0.24,-0.24 H 594.92 V 142.074 H -0.24 Z"
         id="path8473"
         inkscape:connector-curvature="0" />
    </clipPath>
    <clipPath
       clipPathUnits="userSpaceOnUse"
       id="clipPath9515">
      <rect
         style="fill:#ff1d6c;fill-opacity:1;stroke:#7080b1;stroke-width:0.65852189;stroke-opacity:0.76328502"
         id="rect9517"
         width="595.80493"
         height="142.27789"
         x="1.1752074"
         y="177.92378"
         d="m 182.76483,190.88858 c 0,0 273.69936,-0.67329 273.69936,-0.67329 0,0 173.38108,151.5947 173.38108,151.5947 0,0 -708.101541,-3.54859 -708.101541,-3.54859 0,0 261.021101,-147.37282 261.021101,-147.37282 z" />
    </clipPath>
    <filter
       inkscape:collect="always"
       style="color-interpolation-filters:sRGB"
       id="filter14627"
       x="-0.10370845"
       width="1.2074169"
       y="-0.54000431"
       height="2.0800086">
      <feGaussianBlur
         inkscape:collect="always"
         stdDeviation="17.419779"
         id="feGaussianBlur14629" />
    </filter>
    <filter
       inkscape:collect="always"
       style="color-interpolation-filters:sRGB"
       id="filter15489"
       x="-0.0071523069"
       width="1.0143046"
       y="-0.037241676"
       height="1.0744834">
      <feGaussianBlur
         inkscape:collect="always"
         stdDeviation="1.2013641"
         id="feGaussianBlur15491" />
    </filter>
    <linearGradient
       inkscape:collect="always"
       xlink:href="#linearGradient15497"
       id="linearGradient15499"
       x1="303.64539"
       y1="339.83835"
       x2="305.02948"
       y2="201.55148"
       gradientUnits="userSpaceOnUse" />
    <linearGradient
       inkscape:collect="always"
       xlink:href="#linearGradient15505"
       id="linearGradient15507"
       x1="421.19336"
       y1="344.93549"
       x2="419.11594"
       y2="343.68906"
       gradientUnits="userSpaceOnUse" />
  </defs>
  <g
     inkscape:groupmode="layer"
     id="layer2"
     inkscape:label="Layer 2">
    <rect
       style="fill:#000000;fill-opacity:0.99516913;stroke:#000000;stroke-width:1.00296009;stroke-opacity:1"
       id="rect9497"
       width="594.62982"
       height="299.07764"
       x="1.1752059"
       y="0.92234689" />
    <path
       transform="translate(-0.72656117,-1.5014655)"
       style="fill:url(#linearGradient15507);fill-opacity:1;stroke:url(#linearGradient15499);stroke-width:1px;stroke-opacity:1"
       clip-path="url(#clipPath9515)"
       d="m 0,200.95198 c 0,0 -332.9294,99.27202 -332.9294,99.27202 M 48.653203,200.85602 c 0,0 -287.972283,99.65958 -287.972283,99.65958 M 97.547106,200.75958 c 0,0 -242.347356,100.05044 -242.347356,100.05044 M 146.6835,200.66266 c 0,0 -196.043117,100.44466 -196.043117,100.44466 M 196.0642,200.56527 c 0,0 -149.047837,100.84226 -149.047837,100.84226 M 245.69102,200.46738 c 0,0 -101.34951,101.24331 -101.34951,101.24331 M 295.56582,200.36901 c 0,0 -52.9359,101.64785 -52.9359,101.64785 M 345.69045,200.27014 c 0,0 -3.79449,102.05593 -3.79449,102.05593 M 396.0668,200.17078 c 0,0 46.08748,102.4676 46.08748,102.4676 m 4.5425,-102.56746 c 0,0 96.72309,102.8829 96.72309,102.8829 M 497.58229,199.97056 c 0,0 148.12565,103.30188 148.12565,103.30188 M 548.72527,199.86968 c 0,0 200.30881,103.72462 200.30881,103.72462 M 0,200.95198 c 0,0 595.805,-1.17516 595.805,-1.17516 m -626.714402,10.39164 c 0,0 649.209432,-0.97856 649.209432,-0.97856 m -686.115685,11.98317 c 0,0 713.133455,-0.67754 713.133455,-0.67754 m -757.96925,14.04657 c 0,0 791.02619,-0.21385 791.02619,-0.21385 m -846.65469,16.80101 c 0,0 888.03044,0.51273 888.03044,0.51273 m -958.88182,20.61355 c 0,0 1012.16851,1.68434 1012.16851,1.68434 m -1105.48193,26.13961 c 0,0 1176.68758,3.6565 1176.68758,3.6565"
       id="path9499" />
    <g
       transform="matrix(0.15375631,0,0,0.15375631,509.15559,-42.21328)"
       id="g19558">
      <path
         style="fill:#e62a6c;stroke:#ff1d6c;stroke-width:0.40203044;stroke-opacity:0"
         d="m 128.48857,512.53918 c -1.15222,-1.15222 -3.6198,-6.43 -4.01262,-8.58241 -0.19128,-1.048 -0.57454,-2.17871 -0.85171,-2.51268 -0.80901,-0.9748 -3.72876,-0.73164 -7.15247,0.59567 -2.94045,1.13995 -3.18688,1.33419 -4.71089,3.71325 -3.0598,4.77657 -4.92414,6.34072 -7.55755,6.34072 -1.50604,0 -1.30787,0.30994 -3.91586,-6.12455 -0.777498,-1.9183 -1.720688,-3.49677 -2.462328,-4.1208 -1.14549,-0.96389 -1.44194,-1.01161 -6.29714,-1.01375 -6.51111,-0.003 -7.99472,-0.38133 -8.32235,-2.12303 -0.18511,-0.98412 -0.59593,-1.45911 -1.72408,-1.9934 -0.8146,-0.38576 -2.08309,-1.08903 -2.81888,-1.56282 l -1.33777,-0.86142 -1.0744,0.79777 c -1.86876,1.38761 -3.40048,4.961 -3.66405,8.54793 -0.12804,1.74292 -0.38128,3.31737 -0.56269,3.49879 -0.34753,0.34752 -3.81298,0.33515 -4.16298,-0.0149 -0.11241,-0.11241 0.0856,-0.61804 0.43978,-1.12377 0.72879,-1.04048 0.86313,-2.75075 0.21608,-2.75075 -0.2354,0 -0.88509,0.54323 -1.44376,1.20716 -0.55867,0.66395 -1.18018,1.10555 -1.38114,0.98135 -0.61184,-0.37813 -0.40783,-6.92302 0.30827,-9.88994 0.91788,-3.80288 0.58434,-4.64522 -2.41468,-6.0982 -2.22511,-1.07805 -2.41891,-1.10594 -3.81928,-0.54972 -1.23152,0.48915 -1.50844,0.82098 -1.67625,2.0087 -0.12968,0.91811 -0.59375,1.72995 -1.30826,2.28883 -0.608981,0.47635 -1.657924,1.66649 -2.330985,2.64474 -0.673061,0.97825 -1.480135,1.77865 -1.793484,1.77865 -0.313363,0 -1.164017,0.50195 -1.890335,1.11545 -2.683117,2.26632 -2.595318,2.23316 -3.504857,1.32363 -0.517369,-0.51736 -0.830956,-1.35208 -0.830956,-2.21188 0,-0.75952 -0.187613,-1.87439 -0.416915,-2.4775 -0.345762,-0.90943 -0.234275,-1.45756 0.653289,-3.21179 0.898372,-1.77561 1.025254,-2.41489 0.79028,-3.98181 -0.215604,-1.43778 -0.120897,-2.10925 0.41215,-2.92282 0.419967,-0.64096 0.729102,-2.00435 0.786275,-3.46779 0.08442,-2.16014 -0.02129,-2.52712 -1.013909,-3.51971 -1.407657,-1.40765 -2.889907,-1.77792 -4.812,-1.20205 -2.446014,0.73285 -3.588383,0.56395 -4.872746,-0.72041 -0.941595,-0.9416 -1.175154,-1.52559 -1.175154,-2.93839 0,-0.96976 0.265615,-2.11439 0.590249,-2.5436 1.39661,-1.84648 0.307959,-5.22268 -2.30923,-7.16163 -1.079792,-0.79997 -1.209964,-0.80658 -4.020306,-0.20412 -1.597399,0.34245 -3.146663,0.69785 -3.442785,0.78977 -0.296138,0.092 -0.919634,-0.33063 -1.385548,-0.93903 l -0.847125,-1.10618 0.9114,-2.82978 c 1.0553,-3.27662 0.904373,-4.64468 -0.67254,-6.09656 -2.456629,-2.26181 -2.474138,-2.26528 -7.077844,-1.40399 l -4.20238,0.78618 -1.938441,-1.19101 c -2.4284597,-1.49209 -2.6430667,-2.30944 -0.80776,-3.07628 0.761396,-0.31813 1.507576,-0.77779 1.658175,-1.02148 0.1506,-0.24367 0.760652,-0.44481 1.355681,-0.44697 1.612437,-0.006 5.143721,-1.79116 5.936711,-3.00143 1.109242,-1.69291 1.190505,-4.59201 0.216393,-7.71896 -1.231821,-3.95416 -1.384252,-4.08143 -5.727286,-4.78227 -4.961691,-0.80066 -6.5408217,-1.5712 -6.7052677,-3.27185 -0.113006,-1.16899 0.10169,-1.4521 2.2865547,-3.01524 2.914666,-2.08523 4.069676,-3.94608 4.069676,-6.55675 0,-3.38976 -1.629425,-5.01809 -5.0214247,-5.01809 -0.495334,0 -1.343338,-0.34827 -1.884455,-0.77391 -0.668177,-0.52558 -1.169317,-0.65656 -1.561844,-0.40819 -0.317875,0.20115 -0.985025,0.36849 -1.482533,0.37188 -1.729314,0.0119 -0.882352,-2.39137 1.218004,-3.45596 0.71207,-0.36093 2.108798,-1.49352 3.103814,-2.51686 0.9950297,-1.02334 2.4218337,-2.18298 3.1706627,-2.577 1.336951,-0.70345 1.357512,-0.75423 1.139184,-2.81421 -0.122237,-1.15381 -0.689737,-3.70108 -1.261003,-5.66057 -1.206376,-4.13796 -1.292002,-5.83709 -0.382731,-7.59541 0.36077,-0.69766 0.74018,-2.36213 0.843136,-3.69881 0.260553,-3.38295 -0.724815,-4.78081 -4.4217217,-6.27274 -1.4969,-0.60409 -3.710649,-1.84507 -4.919466,-2.75772 -2.99472403,-2.26105 -3.29278203,-3.70985 -1.279316,-6.21863 0.80222,-0.99957 1.048674,-1.0968 1.783464,-0.70355 0.468936,0.25096 1.887268,0.45629 3.151859,0.45629 2.207704,0 2.383898,0.0801 4.4246987,2.01016 1.796998,1.69952 2.365778,2.01015 3.680797,2.01015 3.126861,0 3.912079,-2.09811 2.108396,-5.63362 -0.725826,-1.42274 -0.834648,-2.08379 -0.589907,-3.5834 0.684361,-4.1934 0.502868,-5.29386 -1.389776,-8.42629 -1.673212,-2.76925 -1.749622,-3.0216 -1.27473,-4.20964 0.801,-2.00388 1.509318,-4.26581 2.262956,-7.2265 0.794673,-3.12189 2.084307,-4.91549 3.80628,-5.29369 0.650266,-0.14279 2.625944,0.0347 4.39038,0.39464 5.91149,1.20572 7.769413,0.0421 10.280386,-6.4383 l 1.520379,-3.9239 -1.753433,-3.57728 c -2.733441,-5.57667 -2.362711,-7.96424 1.236645,-7.96424 2.099627,0 3.809644,0.9296 6.640383,3.60985 2.080525,1.96993 3.007662,2.4206 4.979722,2.4206 1.401121,0 1.969335,-0.31425 4.284745,-2.36959 2.125756,-1.88699 3.173626,-2.50557 5.145109,-3.03731 3.89804,-1.05135 4.62321,-1.43073 5.52548,-2.89063 0.46515,-0.75263 1.50701,-1.85179 2.31523,-2.44258 3.92228,-2.86705 4.23048,-3.51416 2.87661,-6.04017 -0.44224,-0.82511 -0.80406,-2.26053 -0.80406,-3.18984 0,-0.9293 -0.28788,-2.92202 -0.63972,-4.42829 -0.91308,-3.90891 -0.61917,-6.93045 0.88251,-9.07271 3.44941,-4.92084 7.0651,0.33464 8.42827,12.25065 0.23825,2.08263 0.39456,2.37598 1.66569,3.12596 0.77152,0.45521 1.49501,1.18042 1.60776,1.61159 0.3594,1.37438 2.56574,1.44258 6.3929,0.19761 4.1016,-1.33422 4.31004,-1.63331 5.18138,-7.43449 0.55926,-3.7236 1.31561,-6.08003 2.10884,-6.57027 0.67349,-0.41623 3.5869,0.98314 4.64132,2.22931 0.61696,0.72915 1.81849,2.59308 2.6701,4.14207 0.851588,1.54898 1.887848,3.23559 2.302798,3.74802 l 0.75443,0.93169 2.20389,-0.83245 c 2.87657,-1.0865 7.55332,-4.60476 7.88669,-5.93304 0.13996,-0.55762 0.13832,-2.264 -0.003,-3.79199 -0.19044,-2.04898 -0.099,-3.15902 0.34812,-4.22928 0.33336,-0.79812 0.60621,-2.30921 0.60621,-3.35797 0,-3.89103 3.12168,-5.42375 5.08665,-2.49753 1.57215,2.34123 1.73701,8.64813 0.33151,12.68175 -0.78557,2.25451 -0.72794,4.15045 0.1875,6.16674 1.39278,3.06771 4.52765,3.73693 8.97592,1.91614 3.4618,-1.41699 5.08025,-1.37783 7.19042,0.17402 1.97109,1.44955 2.64966,1.50542 6.67684,0.54969 2.79461,-0.6632 3.13019,-0.86785 5.85179,-3.56871 1.58794,-1.57586 3.80232,-3.8825 4.92081,-5.1259 1.82935,-2.03363 2.19586,-2.26071 3.64869,-2.26071 1.829,0 3.05534,1.00658 3.78843,3.1095 0.39601,1.136 0.26821,1.61501 -1.24648,4.67179 -1.50867,3.04459 -1.70989,3.79437 -1.89643,7.06586 -0.17584,3.08404 -0.1005,3.77944 0.4792,4.41994 1.03479,1.14344 4.47569,2.48396 7.01717,2.7338 3.29406,0.32381 4.22458,0.96051 6.10217,4.17537 2.29489,3.92941 2.88638,4.47372 4.28394,3.94237 0.6094,-0.23169 2.28609,-1.55658 3.726,-2.9442 3.89698,-3.75548 8.91184,-5.28658 12.03146,-3.67337 1.33423,0.68996 1.75896,2.54306 1.27293,5.55368 -0.34087,2.11145 -1.09036,3.07921 -4.30599,5.56004 -2.16098,1.6672 -3.36518,3.56713 -3.36518,5.30945 0,0.5618 0.62193,1.7512 1.4071,2.691 0.77392,0.9263 1.40711,1.92784 1.40711,2.22563 0,0.29779 0.99037,2.51159 2.20081,4.91958 1.89074,3.76136 2.58749,4.72184 4.94554,6.81755 2.60767,2.31757 2.87676,2.45351 5.38849,2.72251 2.1449,0.22969 2.83998,0.15454 3.68363,-0.39823 0.59108,-0.38729 1.98373,-0.71881 3.22691,-0.76817 1.88347,-0.0747 2.5024,-0.3249 4.45905,-1.80218 3.14511,-2.37459 4.51988,-2.86187 8.07415,-2.86187 h 3.0582 l -0.14964,1.989 c -0.0823,1.09395 -0.43441,2.31513 -0.78246,2.71372 -0.34805,0.39857 -0.82979,1.10641 -1.07055,1.57298 -0.43765,0.84816 -6.53982,4.07088 -9.41707,4.97341 -1.54508,0.48464 -7.33496,4.38128 -8.23939,5.54516 -0.2764,0.3557 -0.50254,1.53804 -0.50254,2.62745 0,1.56378 0.23274,2.26646 1.10559,3.33794 0.60807,0.74646 1.63242,2.00468 2.27633,2.79606 0.64392,0.79137 2.23842,2.1639 3.54336,3.05007 2.89388,1.96519 3.77912,3.34282 4.13867,6.44072 0.46731,4.02638 2.76776,5.99593 6.62539,5.67238 2.81487,-0.23608 4.60479,0.84855 5.98191,3.62483 l 0.95652,1.92836 -0.9557,1.01729 c -0.52563,0.5595 -2.38664,1.76174 -4.13557,2.67164 -2.04182,1.06227 -3.40902,2.06221 -3.82011,2.79395 -0.35214,0.62677 -1.04418,1.24382 -1.53789,1.37121 -1.67536,0.43231 -2.35619,2.36049 -2.33647,6.61718 0.0164,3.533 0.10631,3.97085 1.07414,5.22639 0.58094,0.75369 2.55495,2.45584 4.38667,3.78253 1.83174,1.32671 3.50726,2.69835 3.72338,3.0481 0.21614,0.34976 0.27281,1.4373 0.12596,2.41676 -0.24298,1.62029 -0.44905,1.88312 -2.28577,2.9156 -1.69035,0.9502 -2.69188,1.18282 -6.15733,1.43017 -5.62674,0.40161 -7.01668,1.41066 -8.70578,6.32012 -0.45455,1.32119 -1.31238,2.71111 -2.17583,3.52544 -1.25309,1.18184 -1.42573,1.58159 -1.42807,3.30701 -0.001,1.07948 0.21002,3.35992 0.46994,5.06764 0.37636,2.47262 0.36665,3.42598 -0.0477,4.68131 -1.04532,3.16739 1.19325,8.07992 3.9587,8.68732 1.26764,0.27842 3.26052,2.20407 4.18664,4.04539 0.62496,1.24253 1.53043,5.41656 1.26736,5.84221 -0.0794,0.12849 -1.31579,0.82821 -2.74748,1.5549 -2.8902,1.467 -3.60845,1.48527 -8.42812,0.21453 -2.62006,-0.69081 -2.92487,-0.69267 -6.43249,-0.0395 -4.70153,0.87558 -5.67778,0.90496 -7.98079,0.24014 -1.87098,-0.5401 -1.9148,-0.53056 -5.32959,1.16155 -2.8625,1.41842 -3.71614,2.07573 -5.0624,3.8981 -1.92385,2.6042 -4.8768,5.02235 -8.15228,6.6758 -1.30961,0.66109 -2.81154,1.6324 -3.33761,2.15848 -1.31229,1.31228 -1.29023,3.49555 0.0514,5.09001 0.55434,0.65879 1.21319,2.01316 1.46413,3.00968 0.25092,0.99652 0.9178,2.36041 1.48195,3.03086 l 1.02572,1.219 -1.15385,2.13304 c -1.63074,3.01464 -3.17047,3.26207 -9.71179,1.56067 -3.67877,-0.95686 -4.04055,-0.98576 -5.03092,-0.40203 -0.5869,0.34593 -1.70584,0.62896 -2.48651,0.62896 -1.92783,0 -2.99062,0.45715 -5.03641,2.16636 -2.59491,2.16798 -3.33488,1.98592 -5.47055,-1.34596 -1.77199,-2.76445 -1.80799,-2.79278 -3.01502,-2.37201 -2.69713,0.94022 -3.65078,3.65717 -2.72783,7.77148 l 0.58632,2.61369 -1.35745,2.01571 c -1.19345,1.77217 -1.52617,2.0157 -2.75389,2.0157 -0.83381,0 -1.70288,-0.30645 -2.15706,-0.76064 z M 70.727972,499.16693 c 1.92129,-1.74854 2.58963,-3.22693 1.01862,-2.25325 -1.45916,0.90436 -1.84619,-0.91283 -0.91132,-4.27873 0.16432,-0.59156 0.0581,-0.70518 -0.47,-0.50254 -0.37529,0.14397 -0.84844,0.26183 -1.05148,0.26183 -0.20303,0 -0.36915,0.68748 -0.36915,1.52772 0,0.84023 -0.20703,1.73473 -0.46006,1.98778 -0.34542,0.34541 -0.33576,0.76019 0.0387,1.66427 0.60975,1.47205 0.25073,2.1825 -0.91908,1.81869 -0.86169,-0.26798 -0.86279,-0.26189 -0.10482,0.58669 0.42122,0.47162 0.90713,0.85749 1.07978,0.85749 0.17263,0 1.13963,-0.75148 2.14885,-1.66995 z m -16.85947,-7.17471 c 0.706277,-0.78044 0.702198,-0.80407 -0.138764,-0.80407 -0.598349,0 -0.866376,0.24875 -0.866376,0.80407 0,0.44222 0.06238,0.80405 0.138763,0.80405 0.07623,0 0.466167,-0.36183 0.866377,-0.80405 z m 27.37832,0.33691 c 0.16419,-0.26569 -0.11673,-0.79543 -0.65139,-1.22838 -0.87997,-0.71254 -0.96477,-0.7171 -1.32629,-0.0712 -0.60147,1.07479 1.33155,2.34495 1.97768,1.29951 z m -6.27171,-0.73896 c 0,-0.22111 -0.18092,-0.40202 -0.40204,-0.40202 -0.22112,0 -0.40203,0.18091 -0.40203,0.40202 0,0.22113 0.18091,0.40205 0.40203,0.40205 0.22112,0 0.40204,-0.18092 0.40204,-0.40205 z m -6.13978,-2.71369 c -0.16026,-0.67006 -0.18287,-0.67006 -0.47452,0 -0.16844,0.38694 -0.16844,1.02014 0,1.4071 0.29165,0.67006 0.31426,0.67006 0.47452,0 0.0926,-0.38696 0.0926,-1.02016 0,-1.4071 z m 5.73774,0.42212 c 0,-0.80847 -0.11629,-0.96926 -0.45541,-0.63006 -0.25048,0.25047 -0.34662,0.73894 -0.21363,1.08548 0.36803,0.95907 0.66904,0.75417 0.66904,-0.45542 z m 3.61828,0.23398 c 0,-0.22113 -0.18092,-0.29023 -0.40203,-0.15356 -0.22113,0.13668 -0.40204,0.42937 -0.40204,0.65049 0,0.22111 0.18091,0.29022 0.40204,0.15356 0.22111,-0.13668 0.40203,-0.42938 0.40203,-0.65049 z m 3.52613,-0.832 c -0.24848,-0.74545 -1.11395,-0.86909 -1.11395,-0.15913 0,0.35009 0.28645,0.63655 0.63654,0.63655 0.35011,0 0.56494,-0.21484 0.47741,-0.47742 z m -2.94431,-2.37114 c -0.12939,-0.20944 -0.40672,-0.27489 -0.61616,-0.14546 -0.20945,0.12938 -0.2749,0.40672 -0.14546,0.61616 0.12938,0.20944 0.40671,0.2749 0.61615,0.14546 0.20946,-0.12938 0.27491,-0.4067 0.14547,-0.61616 z m -19.62774,-3.79821 c -0.28006,-0.72983 -1.05561,-0.77916 -1.05561,-0.0672 0,0.73189 0.95343,1.64246 1.13848,1.0873 0.0789,-0.2367 0.0415,-0.69577 -0.0829,-1.02015 z M 157.43781,438.66884 174.207,417.30687 168.27957,390.62734 162.35213,363.9478 137.58926,352.16325 112.82639,340.3787 88.382592,351.86518 c -13.44409,6.31756 -24.64571,11.71055 -24.89249,11.98443 -0.38845,0.43108 -11.802966,51.00948 -11.932573,52.87388 -0.0265,0.38064 7.538313,10.3264 16.810623,22.10171 l 16.85873,21.40964 27.720868,-0.10199 27.72088,-0.10199 z m -55.15804,12.01504 -12.697348,-0.11196 -13.78216,-17.51477 c -7.58018,-9.63313 -13.86164,-17.81874 -13.95879,-18.19026 -0.0972,-0.37152 2.00406,-10.48794 4.66935,-22.48092 2.66531,-11.99297 4.84601,-21.87191 4.84601,-21.95319 0,-0.0813 9.3203,-4.53987 20.71176,-9.90796 l 20.711768,-9.76016 20.59686,9.78627 c 11.32827,5.38245 20.63338,9.80181 20.678,9.82079 0.24871,0.10571 9.78409,43.90179 9.68576,44.48668 -0.0649,0.38656 -6.35968,8.66914 -13.98822,18.40573 l -13.87005,17.70289 -10.45279,-0.0856 c -5.74903,-0.047 -16.1666,-0.13594 -23.15015,-0.19756 z M 34.548187,436.00947 c -0.339106,-1.1032 -0.508763,-1.31102 -0.817913,-1.00187 -0.346462,0.34646 0.221366,1.90645 0.693935,1.90645 0.231281,0 0.283943,-0.38419 0.124023,-0.90458 z m -8.015523,-6.73154 c -0.721182,-0.7969 -1.811366,-1.09639 -1.811366,-0.49762 0,0.38133 2.136,1.7094 2.371123,1.47428 0.0935,-0.0937 -0.158312,-0.53308 -0.559757,-0.97666 z m -3.966081,-2.2912 c -0.482857,-0.48285 -1.178713,0.60091 -0.871379,1.35714 0.272434,0.67035 0.331766,0.65569 0.719588,-0.17784 0.232458,-0.49964 0.300768,-1.03032 0.151791,-1.1793 z m 5.77298,-2.53563 c 0,-0.22112 -0.271363,-0.40204 -0.603039,-0.40204 -0.331677,0 -0.603039,0.18092 -0.603039,0.40204 0,0.22112 0.271362,0.40203 0.603039,0.40203 0.331676,0 0.603039,-0.18091 0.603039,-0.40203 z m 6.030465,-1.15687 c 0,-0.19404 -0.257143,-0.5662 -0.571415,-0.82704 -0.468877,-0.38911 -0.5326,-0.32581 -0.355141,0.35281 0.211316,0.80805 0.926556,1.17414 0.926556,0.47423 z m -5.467656,-3.10464 c 0.481547,-0.18479 0.532943,-0.41987 0.219744,-1.00507 -0.574751,-1.07395 -1.184579,-0.9498 -1.184579,0.2412 0,1.09301 0.03499,1.12069 0.964835,0.76387 z m -3.611907,-7.85422 c -0.188625,-0.30521 -0.397127,-0.23833 -0.646558,0.20738 -0.202488,0.36183 -0.242881,0.86057 -0.08978,1.10834 0.188626,0.3052 0.397128,0.23834 0.646559,-0.20739 0.202487,-0.36181 0.24288,-0.86057 0.08978,-1.10833 z m -3.389543,-1.83109 c 0.006,-1.30751 -0.624211,-2.10279 -1.170315,-1.47622 -0.166293,0.19079 -0.134148,1.14509 0.07161,2.12064 0.419774,1.99127 1.087981,1.59935 1.098761,-0.64442 z m -2.967194,0.38667 c -0.408667,-0.40867 -0.745867,0.2066 -0.410558,0.74913 0.253303,0.40984 0.347995,0.41015 0.484168,10e-4 0.09305,-0.27933 0.06,-0.61717 -0.07355,-0.75075 z m 9.606863,0.69517 c -0.136679,-0.22111 -0.429392,-0.40202 -0.650505,-0.40202 -0.221113,0 -0.290226,0.18091 -0.153562,0.40202 0.136678,0.22111 0.429376,0.40203 0.650504,0.40203 0.221113,0 0.290212,-0.18092 0.153563,-0.40203 z m 9.849743,-5.02537 c 0,-0.30558 -0.180913,-0.6674 -0.402026,-0.80407 -0.22893,-0.14144 -0.402041,0.20475 -0.402041,0.80407 0,0.5993 0.173111,0.94554 0.402041,0.80405 0.221113,-0.13668 0.402026,-0.49849 0.402026,-0.80405 z m -14.473103,-2.44569 c 0,-0.70995 -0.865468,-0.58631 -1.113961,0.15914 -0.08755,0.26257 0.127299,0.4774 0.477422,0.4774 0.350095,0 0.636539,-0.28644 0.636539,-0.63654 z m 7.248946,-0.94841 c -0.250116,-0.46736 -0.638385,-0.73626 -0.862818,-0.59756 -0.251575,0.15548 -0.142038,0.54617 0.28573,1.01881 0.86121,0.95161 1.185249,0.71509 0.577088,-0.42125 z m -5.239858,-0.4272 c -0.502942,-0.93975 -1.205021,-1.40548 -1.205021,-0.79935 0,0.8143 0.835691,2.03535 1.227355,1.79329 0.240304,-0.14844 0.231981,-0.51874 -0.02233,-0.99394 z m -4.829449,-1.90764 c -0.01191,-0.55024 -0.750319,-1.4882 -0.986529,-1.25199 -0.316699,0.3167 0.187792,1.55352 0.633665,1.55352 0.197455,0 0.356244,-0.13564 0.352864,-0.30153 z m 24.796263,-1.00508 c -0.111517,-0.27639 -0.202785,-0.0502 -0.202785,0.50254 0,0.55279 0.09127,0.77894 0.202785,0.50254 0.111517,-0.27639 0.111517,-0.72868 0,-1.00508 z m -19.654656,-2.78549 c -0.220324,-0.66099 -1.420878,-1.36461 -1.756203,-1.02929 -0.382477,0.38248 0.606732,1.50311 1.326826,1.50311 0.323027,0 0.516253,-0.21322 0.429377,-0.47382 z m 279.142133,27.20114 c -4.59814,-1.29051 -9.04761,-4.68868 -11.40395,-8.70944 -2.95351,-5.0398 -4.17576,-12.6554 -2.95623,-18.41991 2.16079,-10.21372 9.69034,-16.88529 19.05684,-16.88529 1.73577,0 4.07512,0.27298 5.19857,0.6066 2.75393,0.81783 6.50994,3.39156 8.29701,5.68533 l 1.46519,1.88064 v -3.48323 -3.48324 h 4.0203 4.02031 v 21.12115 21.12116 l -3.91979,-0.11509 -3.91981,-0.11509 -0.11732,-3.10884 -0.11733,-3.10881 -2.35633,2.40811 c -3.39369,3.46826 -6.58718,4.88644 -11.42325,5.07295 -2.45728,0.0947 -4.39395,-0.06 -5.84427,-0.46706 z m 11.35936,-7.44327 c 3.07442,-1.15029 5.59143,-3.51122 7.17772,-6.73268 1.27174,-2.58265 1.32136,-2.86502 1.32136,-7.5169 0,-4.487 -0.0837,-5.01476 -1.16796,-7.36282 -1.56466,-3.38844 -4.68859,-6.268 -7.77254,-7.16452 -3.05032,-0.88675 -7.72449,-0.60913 -10.07202,0.59823 -8.75512,4.50285 -10.20491,18.84826 -2.60671,25.7926 1.34529,1.22951 2.8956,2.21068 4.05844,2.56852 2.77817,0.85494 6.48876,0.78024 9.06171,-0.18243 z m 80.86456,7.64314 c -10.27636,-2.06268 -17.59595,-11.06416 -17.64607,-21.70079 -0.031,-6.57193 1.9241,-11.44622 6.3744,-15.89243 4.59696,-4.59272 9.4894,-6.62129 15.96911,-6.62129 10.70773,0 19.30109,6.63081 21.87967,16.88275 0.96058,3.81907 0.60876,9.75987 -0.79485,13.42128 -2.64342,6.8957 -8.49808,12.03533 -15.62326,13.71524 -2.68706,0.63352 -7.51334,0.72627 -10.159,0.19524 z m 10.46209,-8.58733 c 3.04015,-1.39184 5.59159,-3.90688 7.12679,-7.02512 1.1814,-2.39965 1.30656,-3.00134 1.30656,-6.28076 0,-3.14631 -0.15309,-3.95834 -1.15552,-6.12845 -1.36679,-2.95901 -4.53289,-6.14824 -7.37123,-7.42505 -1.48683,-0.66884 -2.75117,-0.87347 -5.54431,-0.8973 -3.11994,-0.0267 -3.9337,0.11702 -5.90844,1.0426 -2.92147,1.3694 -5.71972,4.16766 -7.08915,7.08913 -0.93904,2.00337 -1.07348,2.79362 -1.07348,6.31048 0,3.57093 0.12343,4.27165 1.10436,6.26904 3.49893,7.12465 11.6713,10.2195 18.60442,7.04543 z m 73.7633,8.36193 c -7.33549,-1.93529 -13.05196,-7.2078 -15.61121,-14.39884 -0.85226,-2.39463 -1.01618,-3.56864 -1.01618,-7.27756 0,-3.73394 0.16171,-4.87693 1.03878,-7.34259 2.58132,-7.25665 8.2198,-12.44754 15.62077,-14.38079 3.71372,-0.97008 10.08095,-0.64502 13.69573,0.69919 12.62726,4.69562 18.1245,19.59134 11.72473,31.77011 -2.78213,5.29446 -8.32129,9.55416 -14.23722,10.94865 -3.21018,0.75671 -8.30961,0.74845 -11.2154,-0.0182 z m 11.44403,-8.35136 c 3.08257,-1.41124 5.62743,-3.92165 7.14751,-7.05069 1.15888,-2.38555 1.29059,-3.02463 1.29333,-6.27435 0.004,-3.06435 -0.15824,-3.96419 -1.05011,-5.8777 -2.70518,-5.80397 -8.22883,-9.17696 -14.2383,-8.69458 -13.27626,1.06569 -17.96586,18.65358 -7.06384,26.49221 4.01021,2.88336 9.4765,3.43548 13.91141,1.40511 z m 37.20165,8.35136 c -4.03003,-1.06323 -7.25367,-2.93248 -10.28511,-5.96389 -5.70974,-5.70974 -7.81671,-13.44037 -5.806,-21.30235 1.0754,-4.20461 2.7981,-7.28025 5.71868,-10.20991 4.30604,-4.31938 9.69514,-6.51296 16.00085,-6.51296 17.35627,0 27.7334,17.59512 19.6913,33.38787 -0.50125,0.9844 -2.19701,3.0743 -3.76836,4.64425 -3.12116,3.11844 -7.10299,5.34186 -11.01784,6.15225 -2.90764,0.60191 -7.85993,0.5101 -10.53352,-0.19526 z m 11.11156,-8.19162 c 11.45883,-5.06878 11.83851,-21.12111 0.63006,-26.639 -2.39381,-1.17847 -3.04461,-1.31889 -6.1132,-1.31889 -3.06985,0 -3.7189,0.14025 -6.11825,1.32138 -9.04995,4.45527 -10.97246,16.3847 -3.7969,23.56024 1.69935,1.69938 4.51034,3.30297 6.85277,3.90931 2.00364,0.51865 6.47518,0.0828 8.54552,-0.83304 z M 250.26038,402.54045 v -21.10661 h 4.02031 4.02029 v 2.88584 2.88583 l 1.10559,-1.47956 c 1.53232,-2.05063 4.69778,-4.20363 7.28712,-4.95637 3.10889,-0.90378 8.79576,-0.59092 11.59909,0.6381 2.43262,1.06651 5.05084,3.71629 6.10733,6.18099 1.47025,3.42994 1.64098,5.61656 1.64098,21.01657 v 15.07091 l -3.91981,-0.11509 -3.91979,-0.11509 -0.20101,-15.07615 c -0.19675,-14.75645 -0.2208,-15.11631 -1.13411,-16.97063 -1.3454,-2.73159 -3.02794,-3.64229 -7.12668,-3.85742 -3.86486,-0.20286 -5.68229,0.28573 -7.72094,2.07569 -3.11525,2.73518 -3.71777,6.40779 -3.71777,22.66161 v 11.36791 h -4.02029 -4.02031 z m 90.05481,0.0149 V 381.4342 h 4.02031 4.0203 v 2.66981 2.66979 l 1.62929,-1.85096 c 1.01126,-1.14884 2.64743,-2.3522 4.31338,-3.17234 2.56355,-1.26203 2.8921,-1.32138 7.31589,-1.32138 4.26341,0 4.81484,0.0899 6.93312,1.13009 3.9697,1.94937 6.19654,5.45175 7.13221,11.21763 0.22558,1.39007 0.41151,8.90462 0.41319,16.69898 l 0.003,14.17158 h -3.99016 -3.99016 l -0.13593,-14.97563 c -0.1206,-13.29022 -0.21623,-15.15496 -0.84955,-16.56905 -1.48727,-3.32085 -3.74516,-4.61542 -8.07387,-4.62922 -3.67849,-0.0119 -5.74572,0.66487 -7.55292,2.47205 -2.677,2.677 -2.87606,3.92664 -3.12695,19.63079 l -0.2216,13.87005 -3.9198,0.11509 -3.9198,0.11509 v -21.12156 z m 81.61219,20.94831 c 0,-0.079 6.33323,-7.81311 14.07385,-17.1868 l 14.07383,-17.04306 -11.66166,-0.10661 -11.66165,-0.1066 v -3.81322 -3.81321 h 19.53196 c 10.74262,0 19.4717,0.15146 19.39797,0.33657 -0.0737,0.18513 -6.28506,7.78726 -13.80303,16.89367 -7.51797,9.10641 -13.72933,16.73423 -13.80303,16.95074 -0.0858,0.25168 4.73511,0.39363 13.3675,0.39363 h 13.50151 v 3.81929 3.8193 h -21.50862 c -11.82975,0 -21.50863,-0.0646 -21.50863,-0.14368 z"
         id="path19556"
         inkscape:connector-curvature="0" />
    </g>
  </g>
  <g
     inkscape:groupmode="layer"
     id="layer1"
     inkscape:label="Layer 1">
    <rect
       style="opacity:0.20700001;fill:url(#pattern13871);fill-opacity:1;stroke:none;stroke-opacity:1"
       id="rect13779"
       width="594.62457"
       height="192.52303"
       x="-153.35275"
       y="-20.230494" />
    <g
       id="g13027"
       transform="matrix(1.4163828,0,0,1.4163828,-133.5615,-49.911544)">
      <path
         id="rect9695-3"
         d="m 115.85938,97.181641 c 0,0 -4.72071,0.01621 -4.72071,2.128906 v 42.306643 c 0,0.35844 0.0603,0.65674 0.16211,0.91211 -7.37652,2.98607 -8.24219,5.46875 -8.24219,5.46875 v 9.39062 c 0,0 9.17153,-8.82529 29.87305,-9.69531 10.49307,-0.44099 25.94418,3.95051 38.28711,8.22461 v 0.13281 h 0.37891 c 10.98383,3.82112 19.42187,7.50781 19.42187,7.50781 l 0.29297,-10.5664 c 0,0 -4.2177,-1.69608 -10.62305,-3.92969 v -35.31641 c 0,-2.09409 -4.75195,-2.13086 -4.75195,-2.13086 0,1e-5 -4.71875,0.0182 -4.71875,2.13086 v 32.18555 c -3.28616,-1.02725 -6.79712,-2.05528 -10.42383,-3.02344 v -36.3457 c 0,-2.09409 -4.75195,-2.12891 -4.75195,-2.12891 0,0 -4.7207,0.0182 -4.7207,2.13086 v 34.04493 c -3.54251,-0.75708 -7.0691,-1.38097 -10.47461,-1.82032 v -37.27148 c -1e-5,-2.094095 -4.75196,-2.130861 -4.75196,-2.130861 0,0 -4.7207,0.01817 -4.7207,2.130861 v 36.60547 c -2.94941,0.002 -5.6865,0.23417 -8.08008,0.78515 -0.94789,0.2182 -1.82181,0.43806 -2.68359,0.65821 V 99.310547 c 0,-2.094097 -4.75195,-2.128906 -4.75195,-2.128906 z m 319.96289,15.058589 c 0,1e-5 -4.72071,0.0162 -4.72071,2.12891 v 39.66602 c -0.7729,-0.20106 -2.30078,-0.58594 -2.30078,-0.58594 v 7.92187 c 0,0 25.84844,7.08733 43.68164,8.51953 22.14529,1.77852 33.70117,-1.76367 33.70117,-1.76367 l -0.58593,-7.92187 c 0,0 -7.19627,1.278 -25.34571,1.21094 v -37.28321 c 0,-2.09409 -4.75195,-2.1289 -4.75195,-2.1289 0,0 -4.7207,0.0162 -4.7207,2.1289 v 36.9961 c -3.26801,-0.23942 -6.65785,-0.61456 -10.05469,-1.09571 v -40.26367 c 0,-2.09409 -4.75195,-2.1289 -4.75195,-2.12891 0,0 -4.72071,0.0162 -4.72071,2.12891 v 38.70117 c -3.89076,-0.71843 -7.47024,-1.4701 -10.67773,-2.18359 v -41.91797 c 0,-2.09409 -4.75195,-2.12891 -4.75195,-2.12891 z m 60.03711,3.94532 c 0,0 -4.72071,0.0182 -4.72071,2.13086 l 0.83096,46.04401 8.6417,-3.73933 v -42.30468 c 0,-2.09409 -4.75196,-2.13086 -4.75195,-2.13086 z"
         style="fill:#5550b6;fill-opacity:1;stroke:none;stroke-width:0.30179605;stroke-opacity:0.76328502"
         inkscape:connector-curvature="0"
         sodipodi:nodetypes="csscccsccccccscsccscsccccscccsccscccscccscsccscsccsccsccsc" />
      <path
         style="font-style:normal;font-variant:normal;font-weight:normal;font-stretch:condensed;font-size:40px;line-height:1.25;font-family:Impact;-inkscape-font-specification:'Impact, Condensed';font-variant-ligatures:normal;font-variant-caps:normal;font-variant-numeric:normal;font-feature-settings:normal;text-align:end;letter-spacing:0px;word-spacing:0px;writing-mode:lr-tb;text-anchor:end;fill:#ff1d6c;fill-opacity:1;stroke:none;stroke-width:2.64831591"
         d="m 121.93865,51.875338 c 5.96743,29.01633 2.13347,56.927512 3.38378,83.681462 6.49825,1.17723 12.98069,1.91336 19.73815,2.07779 0.82443,0.0199 1.64858,0.0316 2.47313,0.035 -2.04268,-12.45884 -2.91306,-23.98098 -3.22247,-35.46724 1.96598,0.0154 3.92943,0.0201 5.91151,0.009 0.34037,-0.002 0.67637,-0.007 1.00805,-0.0167 0,0 0,0 0,0 3.65561,-0.10881 6.79893,-0.68586 9.41176,-1.67957 0.54931,-0.21011 1.07166,-0.43757 1.56717,-0.681823 1.2909,-0.629777 2.40227,-1.356412 3.33793,-2.173509 1.31432,-1.14641 2.28405,-2.473868 2.92551,-3.973705 0.277,-0.647667 0.51697,-1.386641 0.72141,-2.217506 0.59309,-2.452446 0.89063,-5.754044 0.89738,-9.879918 0.004,-2.450484 0.013,-5.117418 0.0111,-7.612447 -0.004,-5.558467 -0.36184,-9.616571 -1.03164,-12.220039 -0.0174,-0.07224 -0.0352,-0.144089 -0.0534,-0.215549 -0.65385,-2.51778 -1.83419,-4.521756 -3.52696,-6.025233 -0.13734,-0.125059 -0.27992,-0.246035 -0.42775,-0.362997 -1.27091,-1.008727 -2.90096,-1.69961 -4.92768,-2.175806 0,0 0,0 0,0 -0.67019,-0.157824 -1.38032,-0.292424 -2.13113,-0.407193 -1.8908,-0.29506 -4.25648,-0.41512 -7.08816,-0.454329 -1.99618,-0.0278 -4.29476,-0.0038 -6.77319,0.05301 -0.86116,0.01975 -1.72284,0.03335 -2.58417,0.04176 -6.35077,0.06206 -13.29645,-0.163986 -19.62036,-0.334874 z M 211.128,34.796506 c -0.0611,5.523318 -0.0372,10.862652 0.0191,15.810861 5.02131,-1.249871 9.95887,-2.467465 15.05873,-3.701567 1.24357,-0.332706 2.49368,-0.656586 3.75073,-0.971315 0.77432,-0.19809 1.5567,-0.379593 2.34677,-0.544763 -0.0483,-5.226581 -0.0597,-10.8669 0.0199,-16.708035 -0.81699,0.180543 -1.62982,0.38392 -2.43767,0.610751 -1.12388,0.315651 -2.24671,0.633326 -3.36942,0.953382 -5.16528,1.473344 -10.25981,2.978879 -15.38809,4.550686 z m 218.42328,6.948533 c -5.61773,24.941131 -11.90908,45.151152 -17.89852,61.968151 -0.0202,3.73776 -0.0649,9.20946 -0.0851,12.94722 7.84108,-0.42505 15.56623,-0.73623 23.44063,-0.80771 0.52799,-0.005 1.05633,-0.009 1.58532,-0.0118 -0.0702,3.87324 -0.16952,7.51273 -0.31418,10.868 7.04435,-0.46247 13.82236,-0.70041 20.95353,-0.51336 0.39601,-2.94657 0.54469,-6.23274 0.60108,-9.7764 2.02526,0.13038 4.0421,0.2832 6.06319,0.459 0.0246,-3.21324 -0.055,-7.26222 -0.11126,-11.16924 -1.97507,-0.23247 -3.95524,-0.44475 -5.94916,-0.63734 -0.0271,-4.61381 0.29618,-48.21745 -0.65937,-64.886344 -7.46566,0.176046 -14.93237,0.603303 -22.42162,1.156746 -1.73382,0.128132 -3.46871,0.263018 -5.20454,0.403077 z m -222.7243,13.879239 c -5.46847,1.788579 -9.45404,7.212177 -12.16104,15.168584 0.19317,-3.535829 0.37061,-7.102459 0.53765,-10.89994 -1.68398,0.377827 -3.36868,0.752763 -5.04833,1.122413 -4.86874,1.055633 -9.53844,2.094616 -14.63393,3.085022 0.88449,35.570843 -0.83866,37.015313 3.53138,69.968813 5.1686,-1.11816 10.23109,-2.44749 15.25419,-3.96794 1.74454,-0.52858 3.48164,-1.07961 5.21408,-1.65203 -1.85559,-7.49366 -2.70235,-15.53589 -3.17511,-23.97916 -0.34617,-6.18231 -0.21413,-10.697103 0.11132,-12.502338 0.34321,-1.943736 1.35553,-3.594869 3.02765,-4.935745 1.67423,-1.342582 4.31643,-2.313284 7.94254,-2.926276 -0.0966,-4.271736 -0.48631,-22.182635 -0.6004,-28.481403 z m 68.29999,-3.099846 c -0.89312,-0.195572 -1.75363,-0.30316 -2.58364,-0.321464 -1.87811,-0.05675 -3.60048,0.353214 -5.18602,1.223488 -1.63039,0.862058 -3.10539,2.205341 -4.43231,3.9933 -0.52848,0.725394 -1.02998,1.521824 -1.50487,2.385348 0.055,-2.699061 0.0992,-5.497132 0.12605,-8.362483 -3.87758,-0.620245 -7.74962,-1.107567 -11.65377,-1.358236 -1.57689,-0.07899 -3.12948,-0.109762 -4.65966,-0.08818 -1.85978,0.02754 -3.69618,0.118815 -5.50475,0.276758 0.28807,28.564859 0.46537,55.571061 3.74496,61.939831 1.79131,-0.3179 3.59795,-0.53959 5.41137,-0.65685 1.47409,-0.095 2.95327,-0.11941 4.43289,-0.069 3.59454,0.12992 7.13008,0.65482 10.61779,1.45565 -1.486,-7.06614 -1.77505,-19.103033 -2.1282,-36.231311 -0.0732,-3.5514 -0.0881,-6.05018 -0.0395,-7.182453 0.0483,-1.184156 0.41529,-2.150719 1.10149,-2.874371 0.0968,-0.107968 0.19668,-0.207091 0.29971,-0.29729 0.63534,-0.543677 1.38278,-0.754002 2.24551,-0.622024 1.59648,0.244225 2.57122,1.211688 2.94077,2.828776 0.41507,1.65834 0.69338,6.331165 0.84075,13.294718 0.37193,17.574466 0.70516,23.289215 1.36329,32.929705 1.32623,0.42915 2.64056,0.88693 3.9437,1.3657 5.11438,1.87302 10.06665,4.03081 15.06287,6.158 0.89839,-7.51856 0.44492,-24.993313 0.21936,-38.108937 -0.10508,-6.110295 -0.002,-10.203422 0.35689,-11.664481 0.39849,-1.476118 1.31849,-2.093432 2.77052,-1.841374 1.41523,0.245669 2.33097,1.197526 2.74396,2.834173 0.21291,0.766544 0.39448,2.0935 0.53576,3.944571 0.1545,2.023083 0.25848,4.638509 0.30744,7.81278 0.2044,13.253342 0.56704,30.898818 -0.54705,39.684048 3.02898,1.21811 6.0861,2.36861 9.18468,3.39934 3.34712,1.11264 6.7253,2.07972 10.15167,2.83959 0.73841,-12.4741 0.64865,-33.332597 0.43484,-47.783899 -0.0879,-5.937902 -0.50799,-10.418626 -1.21091,-13.259398 -0.70286,-2.87394 -2.20503,-5.443001 -4.54085,-7.754277 -1.43751,-1.439886 -3.10463,-2.55578 -4.99434,-3.338364 -1.14628,-0.475739 -2.37009,-0.831019 -3.66842,-1.062553 -2.16419,-0.385947 -4.11843,-0.222898 -5.89138,0.518084 -0.37375,0.154936 -0.7392,0.33498 -1.09676,0.540212 -2.05631,1.136665 -3.85623,3.093935 -5.46355,5.826766 -3.43364,-6.729122 -8.08113,-11.136879 -13.73029,-12.373909 z m 69.27105,9.768051 c -4.82056,-0.147888 -9.01942,0.667046 -12.62772,2.511282 -3.60865,1.805208 -6.12491,4.543819 -7.62878,8.227297 -1.49931,3.632469 -2.19016,8.668564 -2.12426,14.89 0.0714,6.737369 0.0932,13.805978 0.0795,20.205798 -0.0108,5.0305 0.31155,8.86027 0.99601,11.56038 0.68364,2.66194 1.92524,5.20327 3.73904,7.60316 1.84538,2.3659 4.45737,4.37976 7.83093,5.9112 3.3829,1.53567 7.296,2.38914 11.7489,2.45051 4.5815,0.0631 8.38794,-0.68747 11.3783,-2.07493 3.02734,-1.42473 5.51131,-3.50783 7.45315,-6.16269 0.60981,-0.83372 1.14978,-1.64732 1.6193,-2.4406 1.0259,-1.73745 1.71517,-3.37905 2.06529,-4.93113 0.54336,-2.25726 0.81854,-5.48037 0.82352,-9.66418 0.002,-1.67785 0.005,-3.34631 0.007,-5.02416 -0.97531,0.0265 -1.9501,0.0517 -2.92462,0.0753 -5.66929,0.135 -11.29429,0.20817 -16.92255,0.17779 -0.001,2.00019 -0.01,7.07836 -0.0114,9.07855 -0.004,3.41712 -0.27885,5.73481 -0.82828,6.94256 -0.51502,1.17328 -1.56634,1.76064 -3.14966,1.73738 -1.27326,-0.0187 -2.13296,-0.49091 -2.5788,-1.40048 -0.44637,-0.91068 -0.66605,-2.92046 -0.65975,-6.0283 0.0102,-5.05342 0.022,-9.81449 0.0158,-14.91578 8.02466,0.17843 16.01886,0.12716 24.13724,-0.041 0.97471,-0.0206 1.9497,-0.0426 2.92522,-0.0658 3.2e-4,-3.071219 -0.004,-6.069922 -0.017,-9.198584 -0.0278,-6.788105 -0.86674,-12.204288 -2.47338,-16.071748 -0.18681,-0.463899 -0.39002,-0.917369 -0.60962,-1.360314 -1.63669,-3.29229 -4.1712,-5.989711 -7.61071,-8.10712 -3.87515,-2.444836 -8.75378,-3.703402 -14.6523,-3.884361 z m 65.57956,-1.73591 c -4.35693,0.539253 -7.92287,3.064056 -10.69928,7.314821 0,0 0,0 0,1e-6 -0.93182,1.423565 -1.77405,3.040053 -2.52811,4.839704 0.2539,-3.352001 0.4935,-6.615525 0.75057,-10.124695 -7.0637,0.315713 -14.04428,0.631055 -21.10347,0.87115 0.2795,25.541509 -0.19475,47.458446 0.46594,69.528556 6.99541,-0.64888 13.98345,-1.45769 20.92116,-2.28654 -0.1991,-7.53909 -0.13858,-16.52667 -0.10702,-24.77334 0.0244,-6.365107 0.23583,-10.638318 0.64956,-12.473402 0.2025,-0.915152 0.5695,-1.740079 1.10149,-2.471453 0.55953,-0.770939 1.30174,-1.438615 2.22728,-1.999541 1.80269,-1.092537 4.64007,-1.686318 8.50385,-1.732101 -0.0303,-9.86813 -0.10508,-15.61014 -0.18197,-26.69316 z M 144.2847,66.540146 c 2.80353,-0.01991 4.67116,0.355941 5.57469,1.197469 0.66231,0.616854 1.08198,1.780109 1.25351,3.492417 0,0 0,1e-6 0,1e-6 0.0628,0.618237 0.0927,1.307598 0.0897,2.06827 -0.006,1.400936 -0.0275,5.481656 -0.0331,6.882591 -0.004,0.874614 -0.0399,1.666454 -0.10705,2.374847 0,10e-7 0,10e-7 0,10e-7 -0.16936,1.804032 -0.54101,3.068288 -1.11763,3.791026 -0.76802,0.971642 -2.16143,1.463842 -4.17062,1.459844 -0.45026,-8.96e-4 -0.98682,-0.02073 -1.60919,-0.05821 0.0204,-7.089879 0.13687,-14.127685 0.11967,-21.208252 z m 66.94086,-10.302827 c 0.41458,25.545659 0.40457,55.320461 4.50553,66.245381 4.95052,-1.98818 9.82896,-4.07835 14.72079,-6.23087 1.08924,-0.48002 2.19273,-0.92962 3.30875,-1.3465 0.77944,-0.29457 1.56556,-0.57239 2.35767,-0.83265 -3.23343,-7.057 -3.33745,-34.529724 -3.74402,-62.749861 -0.7849,0.158755 -1.5616,0.331939 -2.32986,0.519702 -1.28105,0.307404 -2.55382,0.625282 -3.81871,0.953148 -5.13619,1.16952 -9.94619,2.27834 -15.00015,3.44165 z m 225.43066,9.951739 c 0.11385,13.693955 0.13339,27.611952 0.0734,37.580952 -0.52913,-0.016 -1.05781,-0.0309 -1.58624,-0.0447 -2.5714,-0.0677 -5.1405,-0.10966 -7.7129,-0.1296 2.62768,-9.004364 5.18765,-18.89354 7.68967,-30.209409 0.51388,-2.332397 1.0275,-4.735753 1.53608,-7.197203 z m -90.98829,9.401736 c 1.17141,0.02469 1.95703,0.590957 2.35364,1.69667 0.39554,1.102699 0.62336,3.542442 0.66276,7.243154 0.0186,1.744663 0.0339,3.472229 0.0463,5.196553 -2.0313,-0.02212 -4.05754,-0.05615 -6.08142,-0.103593 -0.0135,-1.725779 -0.0301,-3.457762 -0.0502,-5.204654 -0.0464,-4.038386 0.0801,-6.54382 0.40959,-7.456408 0.32807,-0.947078 1.21211,-1.402233 2.65931,-1.371722 z"
         id="path11242"
         inkscape:connector-curvature="0"
         inkscape:path-effect="#path-effect11244"
         inkscape:original-d="m 122.0729,51.932628 v 83.744142 h 21.77539 v -33.72461 h 5.8457 c 4.7587,0 8.60409,-0.65643 11.53516,-1.966792 2.96557,-1.31036 5.00006,-3.18841 6.10351,-5.63672 1.10347,-2.44831 1.6543,-6.3465 1.6543,-11.69141 v -7.29296 c 0,-5.24146 -0.29269,-9.10315 -0.8789,-11.58594 -0.55174,-2.5173 -1.6371,-4.65543 -3.25782,-6.41407 -1.58624,-1.75864 -3.98447,-3.10409 -7.1914,-4.03515 -3.17247,-0.93104 -7.72319,-1.39649 -13.6543,-1.39649 z m 90.41602,0 v 10.91407 h 21.51757 v -10.91407 z m 217.70898,0 -18.05078,54.726572 v 14.27539 h 24.82812 v 14.74218 h 20.89649 v -14.74218 h 5.94726 V 106.6592 h -5.94726 V 51.932628 Z m -222.3125,13.86329 c -5.75871,0.37932 -10.15688,3.79382 -13.19141,10.24218 l 0.82813,-9.00195 h -20.89649 v 68.640622 h 20.89649 V 108.5713 c 0,-6.65527 0.20729,-10.895042 0.62109,-12.722652 0.4138,-1.8621 1.51741,-3.3112 3.31055,-4.3457 1.79312,-1.0345 4.60399,-1.55274 8.43164,-1.55274 z m 67.29297,0 c -2.86213,0 -5.41289,0.65447 -7.6543,1.96484 -2.24141,1.27589 -4.17225,3.20673 -5.79297,5.79297 l 0.36133,-6.51758 H 241.45376 V 135.67677 H 261.7311 V 88.088878 c 0,-3.31039 0.0345,-5.46483 0.10352,-6.46484 0.069,-1.0345 0.43076,-1.89626 1.08594,-2.58594 0.65519,-0.72413 1.44786,-1.08789 2.3789,-1.08789 1.48278,0 2.37911,0.67273 2.68946,2.01758 0.34484,1.34485 0.51757,5.37929 0.51757,12.10352 v 43.605462 h 20.27539 V 90.934588 c 0,-5.89664 0.2073,-9.53473 0.6211,-10.91406 0.44828,-1.37934 1.4137,-2.07032 2.89648,-2.07032 1.4483,0 2.36286,0.70728 2.74219,2.1211 0.41379,1.37933 0.62109,5.00112 0.62109,10.86328 v 44.742182 h 20.27539 V 86.899428 c 0,-5.62077 -0.32724,-9.67345 -0.98242,-12.15625 -0.65518,-2.51728 -2.15513,-4.63717 -4.5,-6.36133 -2.31037,-1.72417 -5.24119,-2.58593 -8.79297,-2.58593 -2.6897,0 -5.13877,0.65447 -7.3457,1.96484 -2.20693,1.27589 -4.19057,3.20673 -5.94922,5.79297 -3.20695,-5.1725 -7.60317,-7.75781 -13.18945,-7.75781 z m 70.50195,0 c -4.79317,0 -9.03488,0.93086 -12.72461,2.79296 -3.6897,1.82762 -6.34607,4.48205 -7.96679,7.96485 -1.62072,3.44834 -2.42969,8.17374 -2.42969,14.17383 v 20.017572 c 0,5.10353 0.36178,8.99976 1.08593,11.68946 0.72417,2.65521 2.01683,5.10429 3.87891,7.3457 1.89659,2.20693 4.53471,3.94677 7.91406,5.22265 3.37938,1.27589 7.2756,1.91407 11.68946,1.91407 4.55178,0 8.32808,-0.63818 11.32812,-1.91407 3.03453,-1.31036 5.53446,-3.2575 7.5,-5.84375 1.96555,-2.58624 3.20736,-5.01707 3.72461,-7.29296 0.55173,-2.2759 0.82813,-5.53591 0.82813,-9.77735 v -5.06836 H 350.6979 v 9.05078 c 0,3.41385 -0.2764,5.72473 -0.82813,6.93165 -0.51725,1.17243 -1.57003,1.75976 -3.15625,1.75976 -1.27588,0 -2.13765,-0.44914 -2.58593,-1.3457 -0.44828,-0.89657 -0.67188,-2.89651 -0.67188,-6 V 102.5713 h 27.05274 v -9.103512 c 0,-6.65527 -0.7764,-11.80962 -2.32813,-15.46484 -1.51727,-3.68971 -4.18993,-6.63878 -8.01758,-8.84571 -3.79316,-2.24142 -8.62027,-3.36132 -14.48242,-3.36132 z m 64.9668,0 c -5.75872,0.37932 -10.15688,3.79382 -13.19141,10.24218 l 0.82813,-9.00195 h -20.89649 v 68.640622 h 20.89649 V 108.5713 c 0,-6.65527 0.20728,-10.895042 0.62109,-12.722652 0.41379,-1.8621 1.51741,-3.3112 3.31055,-4.3457 1.79312,-1.0345 4.60399,-1.55274 8.43164,-1.55274 z m -266.79883,0.46484 c 2.82765,0 4.69133,0.43089 5.58789,1.29297 0.89656,0.86208 1.34375,2.72383 1.34375,5.58594 v 6.88086 c 0,3.10348 -0.39633,5.15428 -1.18945,6.15429 -0.75862,0.96553 -2.13863,1.44922 -4.13867,1.44922 -0.44828,0 -0.98281,-0.0182 -1.60352,-0.0527 z m 68.64063,0.77539 v 68.640622 h 21.51757 V 67.036148 Z m 224.48632,3.98438 V 106.6592 h -9.20703 z m -90.3125,6.92968 c 1.17243,0 1.94881,0.51823 2.32813,1.55274 0.37932,1.03448 0.56836,3.32712 0.56836,6.8789 v 5.01758 h -6.10352 v -5.01758 c 0,-3.86213 0.17275,-6.22385 0.51758,-7.08593 0.34483,-0.89656 1.24114,-1.34571 2.68945,-1.34571 z"
         transform="matrix(0.66571323,0,0,0.66571323,110.10447,73.875755)" />
    </g>
    <rect
       style="opacity:1;fill:url(#Polkadots-smallwhite);fill-opacity:1.0;stroke:none;stroke-opacity:1"
       id="rect13507"
       width="177.82588"
       height="92.236786"
       x="324.90616"
       y="-224.11304" />
    <g
       transform="matrix(1.4163828,0,0,1.4163828,-133.5615,-49.911544)"
       id="g14617"
       style="filter:url(#filter14627)">
      <path
         sodipodi:nodetypes="csscccsccccccscsccscsccccscccsccscccscccscsccscsccsccsccsc"
         inkscape:connector-curvature="0"
         style="fill:#5550b6;fill-opacity:1;stroke:none;stroke-width:0.30179605;stroke-opacity:0.76328502"
         d="m 115.85938,97.181641 c 0,0 -4.72071,0.01621 -4.72071,2.128906 v 42.306643 c 0,0.35844 0.0603,0.65674 0.16211,0.91211 -7.37652,2.98607 -8.24219,5.46875 -8.24219,5.46875 v 9.39062 c 0,0 9.17153,-8.82529 29.87305,-9.69531 10.49307,-0.44099 25.94418,3.95051 38.28711,8.22461 v 0.13281 h 0.37891 c 10.98383,3.82112 19.42187,7.50781 19.42187,7.50781 l 0.29297,-10.5664 c 0,0 -4.2177,-1.69608 -10.62305,-3.92969 v -35.31641 c 0,-2.09409 -4.75195,-2.13086 -4.75195,-2.13086 0,1e-5 -4.71875,0.0182 -4.71875,2.13086 v 32.18555 c -3.28616,-1.02725 -6.79712,-2.05528 -10.42383,-3.02344 v -36.3457 c 0,-2.09409 -4.75195,-2.12891 -4.75195,-2.12891 0,0 -4.7207,0.0182 -4.7207,2.13086 v 34.04493 c -3.54251,-0.75708 -7.0691,-1.38097 -10.47461,-1.82032 v -37.27148 c -1e-5,-2.094095 -4.75196,-2.130861 -4.75196,-2.130861 0,0 -4.7207,0.01817 -4.7207,2.130861 v 36.60547 c -2.94941,0.002 -5.6865,0.23417 -8.08008,0.78515 -0.94789,0.2182 -1.82181,0.43806 -2.68359,0.65821 V 99.310547 c 0,-2.094097 -4.75195,-2.128906 -4.75195,-2.128906 z m 319.96289,15.058589 c 0,1e-5 -4.72071,0.0162 -4.72071,2.12891 v 39.66602 c -0.7729,-0.20106 -2.30078,-0.58594 -2.30078,-0.58594 v 7.92187 c 0,0 25.84844,7.08733 43.68164,8.51953 22.14529,1.77852 33.70117,-1.76367 33.70117,-1.76367 l -0.58593,-7.92187 c 0,0 -7.19627,1.278 -25.34571,1.21094 v -37.28321 c 0,-2.09409 -4.75195,-2.1289 -4.75195,-2.1289 0,0 -4.7207,0.0162 -4.7207,2.1289 v 36.9961 c -3.26801,-0.23942 -6.65785,-0.61456 -10.05469,-1.09571 v -40.26367 c 0,-2.09409 -4.75195,-2.1289 -4.75195,-2.12891 0,0 -4.72071,0.0162 -4.72071,2.12891 v 38.70117 c -3.89076,-0.71843 -7.47024,-1.4701 -10.67773,-2.18359 v -41.91797 c 0,-2.09409 -4.75195,-2.12891 -4.75195,-2.12891 z m 60.03711,3.94532 c 0,0 -4.72071,0.0182 -4.72071,2.13086 l 0.83096,46.04401 8.6417,-3.73933 v -42.30468 c 0,-2.09409 -4.75196,-2.13086 -4.75195,-2.13086 z"
         id="path14613" />
      <path
         transform="matrix(0.66571323,0,0,0.66571323,110.10447,73.875755)"
         inkscape:original-d="m 122.0729,51.932628 v 83.744142 h 21.77539 v -33.72461 h 5.8457 c 4.7587,0 8.60409,-0.65643 11.53516,-1.966792 2.96557,-1.31036 5.00006,-3.18841 6.10351,-5.63672 1.10347,-2.44831 1.6543,-6.3465 1.6543,-11.69141 v -7.29296 c 0,-5.24146 -0.29269,-9.10315 -0.8789,-11.58594 -0.55174,-2.5173 -1.6371,-4.65543 -3.25782,-6.41407 -1.58624,-1.75864 -3.98447,-3.10409 -7.1914,-4.03515 -3.17247,-0.93104 -7.72319,-1.39649 -13.6543,-1.39649 z m 90.41602,0 v 10.91407 h 21.51757 v -10.91407 z m 217.70898,0 -18.05078,54.726572 v 14.27539 h 24.82812 v 14.74218 h 20.89649 v -14.74218 h 5.94726 V 106.6592 h -5.94726 V 51.932628 Z m -222.3125,13.86329 c -5.75871,0.37932 -10.15688,3.79382 -13.19141,10.24218 l 0.82813,-9.00195 h -20.89649 v 68.640622 h 20.89649 V 108.5713 c 0,-6.65527 0.20729,-10.895042 0.62109,-12.722652 0.4138,-1.8621 1.51741,-3.3112 3.31055,-4.3457 1.79312,-1.0345 4.60399,-1.55274 8.43164,-1.55274 z m 67.29297,0 c -2.86213,0 -5.41289,0.65447 -7.6543,1.96484 -2.24141,1.27589 -4.17225,3.20673 -5.79297,5.79297 l 0.36133,-6.51758 H 241.45376 V 135.67677 H 261.7311 V 88.088878 c 0,-3.31039 0.0345,-5.46483 0.10352,-6.46484 0.069,-1.0345 0.43076,-1.89626 1.08594,-2.58594 0.65519,-0.72413 1.44786,-1.08789 2.3789,-1.08789 1.48278,0 2.37911,0.67273 2.68946,2.01758 0.34484,1.34485 0.51757,5.37929 0.51757,12.10352 v 43.605462 h 20.27539 V 90.934588 c 0,-5.89664 0.2073,-9.53473 0.6211,-10.91406 0.44828,-1.37934 1.4137,-2.07032 2.89648,-2.07032 1.4483,0 2.36286,0.70728 2.74219,2.1211 0.41379,1.37933 0.62109,5.00112 0.62109,10.86328 v 44.742182 h 20.27539 V 86.899428 c 0,-5.62077 -0.32724,-9.67345 -0.98242,-12.15625 -0.65518,-2.51728 -2.15513,-4.63717 -4.5,-6.36133 -2.31037,-1.72417 -5.24119,-2.58593 -8.79297,-2.58593 -2.6897,0 -5.13877,0.65447 -7.3457,1.96484 -2.20693,1.27589 -4.19057,3.20673 -5.94922,5.79297 -3.20695,-5.1725 -7.60317,-7.75781 -13.18945,-7.75781 z m 70.50195,0 c -4.79317,0 -9.03488,0.93086 -12.72461,2.79296 -3.6897,1.82762 -6.34607,4.48205 -7.96679,7.96485 -1.62072,3.44834 -2.42969,8.17374 -2.42969,14.17383 v 20.017572 c 0,5.10353 0.36178,8.99976 1.08593,11.68946 0.72417,2.65521 2.01683,5.10429 3.87891,7.3457 1.89659,2.20693 4.53471,3.94677 7.91406,5.22265 3.37938,1.27589 7.2756,1.91407 11.68946,1.91407 4.55178,0 8.32808,-0.63818 11.32812,-1.91407 3.03453,-1.31036 5.53446,-3.2575 7.5,-5.84375 1.96555,-2.58624 3.20736,-5.01707 3.72461,-7.29296 0.55173,-2.2759 0.82813,-5.53591 0.82813,-9.77735 v -5.06836 H 350.6979 v 9.05078 c 0,3.41385 -0.2764,5.72473 -0.82813,6.93165 -0.51725,1.17243 -1.57003,1.75976 -3.15625,1.75976 -1.27588,0 -2.13765,-0.44914 -2.58593,-1.3457 -0.44828,-0.89657 -0.67188,-2.89651 -0.67188,-6 V 102.5713 h 27.05274 v -9.103512 c 0,-6.65527 -0.7764,-11.80962 -2.32813,-15.46484 -1.51727,-3.68971 -4.18993,-6.63878 -8.01758,-8.84571 -3.79316,-2.24142 -8.62027,-3.36132 -14.48242,-3.36132 z m 64.9668,0 c -5.75872,0.37932 -10.15688,3.79382 -13.19141,10.24218 l 0.82813,-9.00195 h -20.89649 v 68.640622 h 20.89649 V 108.5713 c 0,-6.65527 0.20728,-10.895042 0.62109,-12.722652 0.41379,-1.8621 1.51741,-3.3112 3.31055,-4.3457 1.79312,-1.0345 4.60399,-1.55274 8.43164,-1.55274 z m -266.79883,0.46484 c 2.82765,0 4.69133,0.43089 5.58789,1.29297 0.89656,0.86208 1.34375,2.72383 1.34375,5.58594 v 6.88086 c 0,3.10348 -0.39633,5.15428 -1.18945,6.15429 -0.75862,0.96553 -2.13863,1.44922 -4.13867,1.44922 -0.44828,0 -0.98281,-0.0182 -1.60352,-0.0527 z m 68.64063,0.77539 v 68.640622 h 21.51757 V 67.036148 Z m 224.48632,3.98438 V 106.6592 h -9.20703 z m -90.3125,6.92968 c 1.17243,0 1.94881,0.51823 2.32813,1.55274 0.37932,1.03448 0.56836,3.32712 0.56836,6.8789 v 5.01758 h -6.10352 v -5.01758 c 0,-3.86213 0.17275,-6.22385 0.51758,-7.08593 0.34483,-0.89656 1.24114,-1.34571 2.68945,-1.34571 z"
         inkscape:path-effect="#path-effect11244"
         inkscape:connector-curvature="0"
         id="path14615"
         d="m 121.93865,51.875338 c 5.96743,29.01633 2.13347,56.927512 3.38378,83.681462 6.49825,1.17723 12.98069,1.91336 19.73815,2.07779 0.82443,0.0199 1.64858,0.0316 2.47313,0.035 -2.04268,-12.45884 -2.91306,-23.98098 -3.22247,-35.46724 1.96598,0.0154 3.92943,0.0201 5.91151,0.009 0.34037,-0.002 0.67637,-0.007 1.00805,-0.0167 0,0 0,0 0,0 3.65561,-0.10881 6.79893,-0.68586 9.41176,-1.67957 0.54931,-0.21011 1.07166,-0.43757 1.56717,-0.681823 1.2909,-0.629777 2.40227,-1.356412 3.33793,-2.173509 1.31432,-1.14641 2.28405,-2.473868 2.92551,-3.973705 0.277,-0.647667 0.51697,-1.386641 0.72141,-2.217506 0.59309,-2.452446 0.89063,-5.754044 0.89738,-9.879918 0.004,-2.450484 0.013,-5.117418 0.0111,-7.612447 -0.004,-5.558467 -0.36184,-9.616571 -1.03164,-12.220039 -0.0174,-0.07224 -0.0352,-0.144089 -0.0534,-0.215549 -0.65385,-2.51778 -1.83419,-4.521756 -3.52696,-6.025233 -0.13734,-0.125059 -0.27992,-0.246035 -0.42775,-0.362997 -1.27091,-1.008727 -2.90096,-1.69961 -4.92768,-2.175806 0,0 0,0 0,0 -0.67019,-0.157824 -1.38032,-0.292424 -2.13113,-0.407193 -1.8908,-0.29506 -4.25648,-0.41512 -7.08816,-0.454329 -1.99618,-0.0278 -4.29476,-0.0038 -6.77319,0.05301 -0.86116,0.01975 -1.72284,0.03335 -2.58417,0.04176 -6.35077,0.06206 -13.29645,-0.163986 -19.62036,-0.334874 z M 211.128,34.796506 c -0.0611,5.523318 -0.0372,10.862652 0.0191,15.810861 5.02131,-1.249871 9.95887,-2.467465 15.05873,-3.701567 1.24357,-0.332706 2.49368,-0.656586 3.75073,-0.971315 0.77432,-0.19809 1.5567,-0.379593 2.34677,-0.544763 -0.0483,-5.226581 -0.0597,-10.8669 0.0199,-16.708035 -0.81699,0.180543 -1.62982,0.38392 -2.43767,0.610751 -1.12388,0.315651 -2.24671,0.633326 -3.36942,0.953382 -5.16528,1.473344 -10.25981,2.978879 -15.38809,4.550686 z m 218.42328,6.948533 c -5.61773,24.941131 -11.90908,45.151152 -17.89852,61.968151 -0.0202,3.73776 -0.0649,9.20946 -0.0851,12.94722 7.84108,-0.42505 15.56623,-0.73623 23.44063,-0.80771 0.52799,-0.005 1.05633,-0.009 1.58532,-0.0118 -0.0702,3.87324 -0.16952,7.51273 -0.31418,10.868 7.04435,-0.46247 13.82236,-0.70041 20.95353,-0.51336 0.39601,-2.94657 0.54469,-6.23274 0.60108,-9.7764 2.02526,0.13038 4.0421,0.2832 6.06319,0.459 0.0246,-3.21324 -0.055,-7.26222 -0.11126,-11.16924 -1.97507,-0.23247 -3.95524,-0.44475 -5.94916,-0.63734 -0.0271,-4.61381 0.29618,-48.21745 -0.65937,-64.886344 -7.46566,0.176046 -14.93237,0.603303 -22.42162,1.156746 -1.73382,0.128132 -3.46871,0.263018 -5.20454,0.403077 z m -222.7243,13.879239 c -5.46847,1.788579 -9.45404,7.212177 -12.16104,15.168584 0.19317,-3.535829 0.37061,-7.102459 0.53765,-10.89994 -1.68398,0.377827 -3.36868,0.752763 -5.04833,1.122413 -4.86874,1.055633 -9.53844,2.094616 -14.63393,3.085022 0.88449,35.570843 -0.83866,37.015313 3.53138,69.968813 5.1686,-1.11816 10.23109,-2.44749 15.25419,-3.96794 1.74454,-0.52858 3.48164,-1.07961 5.21408,-1.65203 -1.85559,-7.49366 -2.70235,-15.53589 -3.17511,-23.97916 -0.34617,-6.18231 -0.21413,-10.697103 0.11132,-12.502338 0.34321,-1.943736 1.35553,-3.594869 3.02765,-4.935745 1.67423,-1.342582 4.31643,-2.313284 7.94254,-2.926276 -0.0966,-4.271736 -0.48631,-22.182635 -0.6004,-28.481403 z m 68.29999,-3.099846 c -0.89312,-0.195572 -1.75363,-0.30316 -2.58364,-0.321464 -1.87811,-0.05675 -3.60048,0.353214 -5.18602,1.223488 -1.63039,0.862058 -3.10539,2.205341 -4.43231,3.9933 -0.52848,0.725394 -1.02998,1.521824 -1.50487,2.385348 0.055,-2.699061 0.0992,-5.497132 0.12605,-8.362483 -3.87758,-0.620245 -7.74962,-1.107567 -11.65377,-1.358236 -1.57689,-0.07899 -3.12948,-0.109762 -4.65966,-0.08818 -1.85978,0.02754 -3.69618,0.118815 -5.50475,0.276758 0.28807,28.564859 0.46537,55.571061 3.74496,61.939831 1.79131,-0.3179 3.59795,-0.53959 5.41137,-0.65685 1.47409,-0.095 2.95327,-0.11941 4.43289,-0.069 3.59454,0.12992 7.13008,0.65482 10.61779,1.45565 -1.486,-7.06614 -1.77505,-19.103033 -2.1282,-36.231311 -0.0732,-3.5514 -0.0881,-6.05018 -0.0395,-7.182453 0.0483,-1.184156 0.41529,-2.150719 1.10149,-2.874371 0.0968,-0.107968 0.19668,-0.207091 0.29971,-0.29729 0.63534,-0.543677 1.38278,-0.754002 2.24551,-0.622024 1.59648,0.244225 2.57122,1.211688 2.94077,2.828776 0.41507,1.65834 0.69338,6.331165 0.84075,13.294718 0.37193,17.574466 0.70516,23.289215 1.36329,32.929705 1.32623,0.42915 2.64056,0.88693 3.9437,1.3657 5.11438,1.87302 10.06665,4.03081 15.06287,6.158 0.89839,-7.51856 0.44492,-24.993313 0.21936,-38.108937 -0.10508,-6.110295 -0.002,-10.203422 0.35689,-11.664481 0.39849,-1.476118 1.31849,-2.093432 2.77052,-1.841374 1.41523,0.245669 2.33097,1.197526 2.74396,2.834173 0.21291,0.766544 0.39448,2.0935 0.53576,3.944571 0.1545,2.023083 0.25848,4.638509 0.30744,7.81278 0.2044,13.253342 0.56704,30.898818 -0.54705,39.684048 3.02898,1.21811 6.0861,2.36861 9.18468,3.39934 3.34712,1.11264 6.7253,2.07972 10.15167,2.83959 0.73841,-12.4741 0.64865,-33.332597 0.43484,-47.783899 -0.0879,-5.937902 -0.50799,-10.418626 -1.21091,-13.259398 -0.70286,-2.87394 -2.20503,-5.443001 -4.54085,-7.754277 -1.43751,-1.439886 -3.10463,-2.55578 -4.99434,-3.338364 -1.14628,-0.475739 -2.37009,-0.831019 -3.66842,-1.062553 -2.16419,-0.385947 -4.11843,-0.222898 -5.89138,0.518084 -0.37375,0.154936 -0.7392,0.33498 -1.09676,0.540212 -2.05631,1.136665 -3.85623,3.093935 -5.46355,5.826766 -3.43364,-6.729122 -8.08113,-11.136879 -13.73029,-12.373909 z m 69.27105,9.768051 c -4.82056,-0.147888 -9.01942,0.667046 -12.62772,2.511282 -3.60865,1.805208 -6.12491,4.543819 -7.62878,8.227297 -1.49931,3.632469 -2.19016,8.668564 -2.12426,14.89 0.0714,6.737369 0.0932,13.805978 0.0795,20.205798 -0.0108,5.0305 0.31155,8.86027 0.99601,11.56038 0.68364,2.66194 1.92524,5.20327 3.73904,7.60316 1.84538,2.3659 4.45737,4.37976 7.83093,5.9112 3.3829,1.53567 7.296,2.38914 11.7489,2.45051 4.5815,0.0631 8.38794,-0.68747 11.3783,-2.07493 3.02734,-1.42473 5.51131,-3.50783 7.45315,-6.16269 0.60981,-0.83372 1.14978,-1.64732 1.6193,-2.4406 1.0259,-1.73745 1.71517,-3.37905 2.06529,-4.93113 0.54336,-2.25726 0.81854,-5.48037 0.82352,-9.66418 0.002,-1.67785 0.005,-3.34631 0.007,-5.02416 -0.97531,0.0265 -1.9501,0.0517 -2.92462,0.0753 -5.66929,0.135 -11.29429,0.20817 -16.92255,0.17779 -0.001,2.00019 -0.01,7.07836 -0.0114,9.07855 -0.004,3.41712 -0.27885,5.73481 -0.82828,6.94256 -0.51502,1.17328 -1.56634,1.76064 -3.14966,1.73738 -1.27326,-0.0187 -2.13296,-0.49091 -2.5788,-1.40048 -0.44637,-0.91068 -0.66605,-2.92046 -0.65975,-6.0283 0.0102,-5.05342 0.022,-9.81449 0.0158,-14.91578 8.02466,0.17843 16.01886,0.12716 24.13724,-0.041 0.97471,-0.0206 1.9497,-0.0426 2.92522,-0.0658 3.2e-4,-3.071219 -0.004,-6.069922 -0.017,-9.198584 -0.0278,-6.788105 -0.86674,-12.204288 -2.47338,-16.071748 -0.18681,-0.463899 -0.39002,-0.917369 -0.60962,-1.360314 -1.63669,-3.29229 -4.1712,-5.989711 -7.61071,-8.10712 -3.87515,-2.444836 -8.75378,-3.703402 -14.6523,-3.884361 z m 65.57956,-1.73591 c -4.35693,0.539253 -7.92287,3.064056 -10.69928,7.314821 0,0 0,0 0,1e-6 -0.93182,1.423565 -1.77405,3.040053 -2.52811,4.839704 0.2539,-3.352001 0.4935,-6.615525 0.75057,-10.124695 -7.0637,0.315713 -14.04428,0.631055 -21.10347,0.87115 0.2795,25.541509 -0.19475,47.458446 0.46594,69.528556 6.99541,-0.64888 13.98345,-1.45769 20.92116,-2.28654 -0.1991,-7.53909 -0.13858,-16.52667 -0.10702,-24.77334 0.0244,-6.365107 0.23583,-10.638318 0.64956,-12.473402 0.2025,-0.915152 0.5695,-1.740079 1.10149,-2.471453 0.55953,-0.770939 1.30174,-1.438615 2.22728,-1.999541 1.80269,-1.092537 4.64007,-1.686318 8.50385,-1.732101 -0.0303,-9.86813 -0.10508,-15.61014 -0.18197,-26.69316 z M 144.2847,66.540146 c 2.80353,-0.01991 4.67116,0.355941 5.57469,1.197469 0.66231,0.616854 1.08198,1.780109 1.25351,3.492417 0,0 0,1e-6 0,1e-6 0.0628,0.618237 0.0927,1.307598 0.0897,2.06827 -0.006,1.400936 -0.0275,5.481656 -0.0331,6.882591 -0.004,0.874614 -0.0399,1.666454 -0.10705,2.374847 0,10e-7 0,10e-7 0,10e-7 -0.16936,1.804032 -0.54101,3.068288 -1.11763,3.791026 -0.76802,0.971642 -2.16143,1.463842 -4.17062,1.459844 -0.45026,-8.96e-4 -0.98682,-0.02073 -1.60919,-0.05821 0.0204,-7.089879 0.13687,-14.127685 0.11967,-21.208252 z m 66.94086,-10.302827 c 0.41458,25.545659 0.40457,55.320461 4.50553,66.245381 4.95052,-1.98818 9.82896,-4.07835 14.72079,-6.23087 1.08924,-0.48002 2.19273,-0.92962 3.30875,-1.3465 0.77944,-0.29457 1.56556,-0.57239 2.35767,-0.83265 -3.23343,-7.057 -3.33745,-34.529724 -3.74402,-62.749861 -0.7849,0.158755 -1.5616,0.331939 -2.32986,0.519702 -1.28105,0.307404 -2.55382,0.625282 -3.81871,0.953148 -5.13619,1.16952 -9.94619,2.27834 -15.00015,3.44165 z m 225.43066,9.951739 c 0.11385,13.693955 0.13339,27.611952 0.0734,37.580952 -0.52913,-0.016 -1.05781,-0.0309 -1.58624,-0.0447 -2.5714,-0.0677 -5.1405,-0.10966 -7.7129,-0.1296 2.62768,-9.004364 5.18765,-18.89354 7.68967,-30.209409 0.51388,-2.332397 1.0275,-4.735753 1.53608,-7.197203 z m -90.98829,9.401736 c 1.17141,0.02469 1.95703,0.590957 2.35364,1.69667 0.39554,1.102699 0.62336,3.542442 0.66276,7.243154 0.0186,1.744663 0.0339,3.472229 0.0463,5.196553 -2.0313,-0.02212 -4.05754,-0.05615 -6.08142,-0.103593 -0.0135,-1.725779 -0.0301,-3.457762 -0.0502,-5.204654 -0.0464,-4.038386 0.0801,-6.54382 0.40959,-7.456408 0.32807,-0.947078 1.21211,-1.402233 2.65931,-1.371722 z"
         style="font-style:normal;font-variant:normal;font-weight:normal;font-stretch:condensed;font-size:40px;line-height:1.25;font-family:Impact;-inkscape-font-specification:'Impact, Condensed';font-variant-ligatures:normal;font-variant-caps:normal;font-variant-numeric:normal;font-feature-settings:normal;text-align:end;letter-spacing:0px;word-spacing:0px;writing-mode:lr-tb;text-anchor:end;fill:#ff1d6c;fill-opacity:1;stroke:none;stroke-width:2.64831591" />
    </g>
    <g
       style="filter:url(#filter15489)"
       id="g14635"
       transform="matrix(1.4163828,0,0,1.4163828,-133.5615,-49.911544)">
      <path
         id="path14631"
         d="m 115.85938,97.181641 c 0,0 -4.72071,0.01621 -4.72071,2.128906 v 42.306643 c 0,0.35844 0.0603,0.65674 0.16211,0.91211 -7.37652,2.98607 -8.24219,5.46875 -8.24219,5.46875 v 9.39062 c 0,0 9.17153,-8.82529 29.87305,-9.69531 10.49307,-0.44099 25.94418,3.95051 38.28711,8.22461 v 0.13281 h 0.37891 c 10.98383,3.82112 19.42187,7.50781 19.42187,7.50781 l 0.29297,-10.5664 c 0,0 -4.2177,-1.69608 -10.62305,-3.92969 v -35.31641 c 0,-2.09409 -4.75195,-2.13086 -4.75195,-2.13086 0,1e-5 -4.71875,0.0182 -4.71875,2.13086 v 32.18555 c -3.28616,-1.02725 -6.79712,-2.05528 -10.42383,-3.02344 v -36.3457 c 0,-2.09409 -4.75195,-2.12891 -4.75195,-2.12891 0,0 -4.7207,0.0182 -4.7207,2.13086 v 34.04493 c -3.54251,-0.75708 -7.0691,-1.38097 -10.47461,-1.82032 v -37.27148 c -1e-5,-2.094095 -4.75196,-2.130861 -4.75196,-2.130861 0,0 -4.7207,0.01817 -4.7207,2.130861 v 36.60547 c -2.94941,0.002 -5.6865,0.23417 -8.08008,0.78515 -0.94789,0.2182 -1.82181,0.43806 -2.68359,0.65821 V 99.310547 c 0,-2.094097 -4.75195,-2.128906 -4.75195,-2.128906 z m 319.96289,15.058589 c 0,1e-5 -4.72071,0.0162 -4.72071,2.12891 v 39.66602 c -0.7729,-0.20106 -2.30078,-0.58594 -2.30078,-0.58594 v 7.92187 c 0,0 25.84844,7.08733 43.68164,8.51953 22.14529,1.77852 33.70117,-1.76367 33.70117,-1.76367 l -0.58593,-7.92187 c 0,0 -7.19627,1.278 -25.34571,1.21094 v -37.28321 c 0,-2.09409 -4.75195,-2.1289 -4.75195,-2.1289 0,0 -4.7207,0.0162 -4.7207,2.1289 v 36.9961 c -3.26801,-0.23942 -6.65785,-0.61456 -10.05469,-1.09571 v -40.26367 c 0,-2.09409 -4.75195,-2.1289 -4.75195,-2.12891 0,0 -4.72071,0.0162 -4.72071,2.12891 v 38.70117 c -3.89076,-0.71843 -7.47024,-1.4701 -10.67773,-2.18359 v -41.91797 c 0,-2.09409 -4.75195,-2.12891 -4.75195,-2.12891 z m 60.03711,3.94532 c 0,0 -4.72071,0.0182 -4.72071,2.13086 l 0.83096,46.04401 8.6417,-3.73933 v -42.30468 c 0,-2.09409 -4.75196,-2.13086 -4.75195,-2.13086 z"
         style="fill:#5550b6;fill-opacity:1;stroke:none;stroke-width:0.30179605;stroke-opacity:0.76328502"
         inkscape:connector-curvature="0"
         sodipodi:nodetypes="csscccsccccccscsccscsccccscccsccscccscccscsccscsccsccsccsc" />
      <path
         style="font-style:normal;font-variant:normal;font-weight:normal;font-stretch:condensed;font-size:40px;line-height:1.25;font-family:Impact;-inkscape-font-specification:'Impact, Condensed';font-variant-ligatures:normal;font-variant-caps:normal;font-variant-numeric:normal;font-feature-settings:normal;text-align:end;letter-spacing:0px;word-spacing:0px;writing-mode:lr-tb;text-anchor:end;fill:#ff1d6c;fill-opacity:1;stroke:none;stroke-width:2.64831591"
         d="m 121.93865,51.875338 c 5.96743,29.01633 2.13347,56.927512 3.38378,83.681462 6.49825,1.17723 12.98069,1.91336 19.73815,2.07779 0.82443,0.0199 1.64858,0.0316 2.47313,0.035 -2.04268,-12.45884 -2.91306,-23.98098 -3.22247,-35.46724 1.96598,0.0154 3.92943,0.0201 5.91151,0.009 0.34037,-0.002 0.67637,-0.007 1.00805,-0.0167 0,0 0,0 0,0 3.65561,-0.10881 6.79893,-0.68586 9.41176,-1.67957 0.54931,-0.21011 1.07166,-0.43757 1.56717,-0.681823 1.2909,-0.629777 2.40227,-1.356412 3.33793,-2.173509 1.31432,-1.14641 2.28405,-2.473868 2.92551,-3.973705 0.277,-0.647667 0.51697,-1.386641 0.72141,-2.217506 0.59309,-2.452446 0.89063,-5.754044 0.89738,-9.879918 0.004,-2.450484 0.013,-5.117418 0.0111,-7.612447 -0.004,-5.558467 -0.36184,-9.616571 -1.03164,-12.220039 -0.0174,-0.07224 -0.0352,-0.144089 -0.0534,-0.215549 -0.65385,-2.51778 -1.83419,-4.521756 -3.52696,-6.025233 -0.13734,-0.125059 -0.27992,-0.246035 -0.42775,-0.362997 -1.27091,-1.008727 -2.90096,-1.69961 -4.92768,-2.175806 0,0 0,0 0,0 -0.67019,-0.157824 -1.38032,-0.292424 -2.13113,-0.407193 -1.8908,-0.29506 -4.25648,-0.41512 -7.08816,-0.454329 -1.99618,-0.0278 -4.29476,-0.0038 -6.77319,0.05301 -0.86116,0.01975 -1.72284,0.03335 -2.58417,0.04176 -6.35077,0.06206 -13.29645,-0.163986 -19.62036,-0.334874 z M 211.128,34.796506 c -0.0611,5.523318 -0.0372,10.862652 0.0191,15.810861 5.02131,-1.249871 9.95887,-2.467465 15.05873,-3.701567 1.24357,-0.332706 2.49368,-0.656586 3.75073,-0.971315 0.77432,-0.19809 1.5567,-0.379593 2.34677,-0.544763 -0.0483,-5.226581 -0.0597,-10.8669 0.0199,-16.708035 -0.81699,0.180543 -1.62982,0.38392 -2.43767,0.610751 -1.12388,0.315651 -2.24671,0.633326 -3.36942,0.953382 -5.16528,1.473344 -10.25981,2.978879 -15.38809,4.550686 z m 218.42328,6.948533 c -5.61773,24.941131 -11.90908,45.151152 -17.89852,61.968151 -0.0202,3.73776 -0.0649,9.20946 -0.0851,12.94722 7.84108,-0.42505 15.56623,-0.73623 23.44063,-0.80771 0.52799,-0.005 1.05633,-0.009 1.58532,-0.0118 -0.0702,3.87324 -0.16952,7.51273 -0.31418,10.868 7.04435,-0.46247 13.82236,-0.70041 20.95353,-0.51336 0.39601,-2.94657 0.54469,-6.23274 0.60108,-9.7764 2.02526,0.13038 4.0421,0.2832 6.06319,0.459 0.0246,-3.21324 -0.055,-7.26222 -0.11126,-11.16924 -1.97507,-0.23247 -3.95524,-0.44475 -5.94916,-0.63734 -0.0271,-4.61381 0.29618,-48.21745 -0.65937,-64.886344 -7.46566,0.176046 -14.93237,0.603303 -22.42162,1.156746 -1.73382,0.128132 -3.46871,0.263018 -5.20454,0.403077 z m -222.7243,13.879239 c -5.46847,1.788579 -9.45404,7.212177 -12.16104,15.168584 0.19317,-3.535829 0.37061,-7.102459 0.53765,-10.89994 -1.68398,0.377827 -3.36868,0.752763 -5.04833,1.122413 -4.86874,1.055633 -9.53844,2.094616 -14.63393,3.085022 0.88449,35.570843 -0.83866,37.015313 3.53138,69.968813 5.1686,-1.11816 10.23109,-2.44749 15.25419,-3.96794 1.74454,-0.52858 3.48164,-1.07961 5.21408,-1.65203 -1.85559,-7.49366 -2.70235,-15.53589 -3.17511,-23.97916 -0.34617,-6.18231 -0.21413,-10.697103 0.11132,-12.502338 0.34321,-1.943736 1.35553,-3.594869 3.02765,-4.935745 1.67423,-1.342582 4.31643,-2.313284 7.94254,-2.926276 -0.0966,-4.271736 -0.48631,-22.182635 -0.6004,-28.481403 z m 68.29999,-3.099846 c -0.89312,-0.195572 -1.75363,-0.30316 -2.58364,-0.321464 -1.87811,-0.05675 -3.60048,0.353214 -5.18602,1.223488 -1.63039,0.862058 -3.10539,2.205341 -4.43231,3.9933 -0.52848,0.725394 -1.02998,1.521824 -1.50487,2.385348 0.055,-2.699061 0.0992,-5.497132 0.12605,-8.362483 -3.87758,-0.620245 -7.74962,-1.107567 -11.65377,-1.358236 -1.57689,-0.07899 -3.12948,-0.109762 -4.65966,-0.08818 -1.85978,0.02754 -3.69618,0.118815 -5.50475,0.276758 0.28807,28.564859 0.46537,55.571061 3.74496,61.939831 1.79131,-0.3179 3.59795,-0.53959 5.41137,-0.65685 1.47409,-0.095 2.95327,-0.11941 4.43289,-0.069 3.59454,0.12992 7.13008,0.65482 10.61779,1.45565 -1.486,-7.06614 -1.77505,-19.103033 -2.1282,-36.231311 -0.0732,-3.5514 -0.0881,-6.05018 -0.0395,-7.182453 0.0483,-1.184156 0.41529,-2.150719 1.10149,-2.874371 0.0968,-0.107968 0.19668,-0.207091 0.29971,-0.29729 0.63534,-0.543677 1.38278,-0.754002 2.24551,-0.622024 1.59648,0.244225 2.57122,1.211688 2.94077,2.828776 0.41507,1.65834 0.69338,6.331165 0.84075,13.294718 0.37193,17.574466 0.70516,23.289215 1.36329,32.929705 1.32623,0.42915 2.64056,0.88693 3.9437,1.3657 5.11438,1.87302 10.06665,4.03081 15.06287,6.158 0.89839,-7.51856 0.44492,-24.993313 0.21936,-38.108937 -0.10508,-6.110295 -0.002,-10.203422 0.35689,-11.664481 0.39849,-1.476118 1.31849,-2.093432 2.77052,-1.841374 1.41523,0.245669 2.33097,1.197526 2.74396,2.834173 0.21291,0.766544 0.39448,2.0935 0.53576,3.944571 0.1545,2.023083 0.25848,4.638509 0.30744,7.81278 0.2044,13.253342 0.56704,30.898818 -0.54705,39.684048 3.02898,1.21811 6.0861,2.36861 9.18468,3.39934 3.34712,1.11264 6.7253,2.07972 10.15167,2.83959 0.73841,-12.4741 0.64865,-33.332597 0.43484,-47.783899 -0.0879,-5.937902 -0.50799,-10.418626 -1.21091,-13.259398 -0.70286,-2.87394 -2.20503,-5.443001 -4.54085,-7.754277 -1.43751,-1.439886 -3.10463,-2.55578 -4.99434,-3.338364 -1.14628,-0.475739 -2.37009,-0.831019 -3.66842,-1.062553 -2.16419,-0.385947 -4.11843,-0.222898 -5.89138,0.518084 -0.37375,0.154936 -0.7392,0.33498 -1.09676,0.540212 -2.05631,1.136665 -3.85623,3.093935 -5.46355,5.826766 -3.43364,-6.729122 -8.08113,-11.136879 -13.73029,-12.373909 z m 69.27105,9.768051 c -4.82056,-0.147888 -9.01942,0.667046 -12.62772,2.511282 -3.60865,1.805208 -6.12491,4.543819 -7.62878,8.227297 -1.49931,3.632469 -2.19016,8.668564 -2.12426,14.89 0.0714,6.737369 0.0932,13.805978 0.0795,20.205798 -0.0108,5.0305 0.31155,8.86027 0.99601,11.56038 0.68364,2.66194 1.92524,5.20327 3.73904,7.60316 1.84538,2.3659 4.45737,4.37976 7.83093,5.9112 3.3829,1.53567 7.296,2.38914 11.7489,2.45051 4.5815,0.0631 8.38794,-0.68747 11.3783,-2.07493 3.02734,-1.42473 5.51131,-3.50783 7.45315,-6.16269 0.60981,-0.83372 1.14978,-1.64732 1.6193,-2.4406 1.0259,-1.73745 1.71517,-3.37905 2.06529,-4.93113 0.54336,-2.25726 0.81854,-5.48037 0.82352,-9.66418 0.002,-1.67785 0.005,-3.34631 0.007,-5.02416 -0.97531,0.0265 -1.9501,0.0517 -2.92462,0.0753 -5.66929,0.135 -11.29429,0.20817 -16.92255,0.17779 -0.001,2.00019 -0.01,7.07836 -0.0114,9.07855 -0.004,3.41712 -0.27885,5.73481 -0.82828,6.94256 -0.51502,1.17328 -1.56634,1.76064 -3.14966,1.73738 -1.27326,-0.0187 -2.13296,-0.49091 -2.5788,-1.40048 -0.44637,-0.91068 -0.66605,-2.92046 -0.65975,-6.0283 0.0102,-5.05342 0.022,-9.81449 0.0158,-14.91578 8.02466,0.17843 16.01886,0.12716 24.13724,-0.041 0.97471,-0.0206 1.9497,-0.0426 2.92522,-0.0658 3.2e-4,-3.071219 -0.004,-6.069922 -0.017,-9.198584 -0.0278,-6.788105 -0.86674,-12.204288 -2.47338,-16.071748 -0.18681,-0.463899 -0.39002,-0.917369 -0.60962,-1.360314 -1.63669,-3.29229 -4.1712,-5.989711 -7.61071,-8.10712 -3.87515,-2.444836 -8.75378,-3.703402 -14.6523,-3.884361 z m 65.57956,-1.73591 c -4.35693,0.539253 -7.92287,3.064056 -10.69928,7.314821 0,0 0,0 0,1e-6 -0.93182,1.423565 -1.77405,3.040053 -2.52811,4.839704 0.2539,-3.352001 0.4935,-6.615525 0.75057,-10.124695 -7.0637,0.315713 -14.04428,0.631055 -21.10347,0.87115 0.2795,25.541509 -0.19475,47.458446 0.46594,69.528556 6.99541,-0.64888 13.98345,-1.45769 20.92116,-2.28654 -0.1991,-7.53909 -0.13858,-16.52667 -0.10702,-24.77334 0.0244,-6.365107 0.23583,-10.638318 0.64956,-12.473402 0.2025,-0.915152 0.5695,-1.740079 1.10149,-2.471453 0.55953,-0.770939 1.30174,-1.438615 2.22728,-1.999541 1.80269,-1.092537 4.64007,-1.686318 8.50385,-1.732101 -0.0303,-9.86813 -0.10508,-15.61014 -0.18197,-26.69316 z M 144.2847,66.540146 c 2.80353,-0.01991 4.67116,0.355941 5.57469,1.197469 0.66231,0.616854 1.08198,1.780109 1.25351,3.492417 0,0 0,1e-6 0,1e-6 0.0628,0.618237 0.0927,1.307598 0.0897,2.06827 -0.006,1.400936 -0.0275,5.481656 -0.0331,6.882591 -0.004,0.874614 -0.0399,1.666454 -0.10705,2.374847 0,10e-7 0,10e-7 0,10e-7 -0.16936,1.804032 -0.54101,3.068288 -1.11763,3.791026 -0.76802,0.971642 -2.16143,1.463842 -4.17062,1.459844 -0.45026,-8.96e-4 -0.98682,-0.02073 -1.60919,-0.05821 0.0204,-7.089879 0.13687,-14.127685 0.11967,-21.208252 z m 66.94086,-10.302827 c 0.41458,25.545659 0.40457,55.320461 4.50553,66.245381 4.95052,-1.98818 9.82896,-4.07835 14.72079,-6.23087 1.08924,-0.48002 2.19273,-0.92962 3.30875,-1.3465 0.77944,-0.29457 1.56556,-0.57239 2.35767,-0.83265 -3.23343,-7.057 -3.33745,-34.529724 -3.74402,-62.749861 -0.7849,0.158755 -1.5616,0.331939 -2.32986,0.519702 -1.28105,0.307404 -2.55382,0.625282 -3.81871,0.953148 -5.13619,1.16952 -9.94619,2.27834 -15.00015,3.44165 z m 225.43066,9.951739 c 0.11385,13.693955 0.13339,27.611952 0.0734,37.580952 -0.52913,-0.016 -1.05781,-0.0309 -1.58624,-0.0447 -2.5714,-0.0677 -5.1405,-0.10966 -7.7129,-0.1296 2.62768,-9.004364 5.18765,-18.89354 7.68967,-30.209409 0.51388,-2.332397 1.0275,-4.735753 1.53608,-7.197203 z m -90.98829,9.401736 c 1.17141,0.02469 1.95703,0.590957 2.35364,1.69667 0.39554,1.102699 0.62336,3.542442 0.66276,7.243154 0.0186,1.744663 0.0339,3.472229 0.0463,5.196553 -2.0313,-0.02212 -4.05754,-0.05615 -6.08142,-0.103593 -0.0135,-1.725779 -0.0301,-3.457762 -0.0502,-5.204654 -0.0464,-4.038386 0.0801,-6.54382 0.40959,-7.456408 0.32807,-0.947078 1.21211,-1.402233 2.65931,-1.371722 z"
         id="path14633"
         inkscape:connector-curvature="0"
         inkscape:path-effect="#path-effect11244"
         inkscape:original-d="m 122.0729,51.932628 v 83.744142 h 21.77539 v -33.72461 h 5.8457 c 4.7587,0 8.60409,-0.65643 11.53516,-1.966792 2.96557,-1.31036 5.00006,-3.18841 6.10351,-5.63672 1.10347,-2.44831 1.6543,-6.3465 1.6543,-11.69141 v -7.29296 c 0,-5.24146 -0.29269,-9.10315 -0.8789,-11.58594 -0.55174,-2.5173 -1.6371,-4.65543 -3.25782,-6.41407 -1.58624,-1.75864 -3.98447,-3.10409 -7.1914,-4.03515 -3.17247,-0.93104 -7.72319,-1.39649 -13.6543,-1.39649 z m 90.41602,0 v 10.91407 h 21.51757 v -10.91407 z m 217.70898,0 -18.05078,54.726572 v 14.27539 h 24.82812 v 14.74218 h 20.89649 v -14.74218 h 5.94726 V 106.6592 h -5.94726 V 51.932628 Z m -222.3125,13.86329 c -5.75871,0.37932 -10.15688,3.79382 -13.19141,10.24218 l 0.82813,-9.00195 h -20.89649 v 68.640622 h 20.89649 V 108.5713 c 0,-6.65527 0.20729,-10.895042 0.62109,-12.722652 0.4138,-1.8621 1.51741,-3.3112 3.31055,-4.3457 1.79312,-1.0345 4.60399,-1.55274 8.43164,-1.55274 z m 67.29297,0 c -2.86213,0 -5.41289,0.65447 -7.6543,1.96484 -2.24141,1.27589 -4.17225,3.20673 -5.79297,5.79297 l 0.36133,-6.51758 H 241.45376 V 135.67677 H 261.7311 V 88.088878 c 0,-3.31039 0.0345,-5.46483 0.10352,-6.46484 0.069,-1.0345 0.43076,-1.89626 1.08594,-2.58594 0.65519,-0.72413 1.44786,-1.08789 2.3789,-1.08789 1.48278,0 2.37911,0.67273 2.68946,2.01758 0.34484,1.34485 0.51757,5.37929 0.51757,12.10352 v 43.605462 h 20.27539 V 90.934588 c 0,-5.89664 0.2073,-9.53473 0.6211,-10.91406 0.44828,-1.37934 1.4137,-2.07032 2.89648,-2.07032 1.4483,0 2.36286,0.70728 2.74219,2.1211 0.41379,1.37933 0.62109,5.00112 0.62109,10.86328 v 44.742182 h 20.27539 V 86.899428 c 0,-5.62077 -0.32724,-9.67345 -0.98242,-12.15625 -0.65518,-2.51728 -2.15513,-4.63717 -4.5,-6.36133 -2.31037,-1.72417 -5.24119,-2.58593 -8.79297,-2.58593 -2.6897,0 -5.13877,0.65447 -7.3457,1.96484 -2.20693,1.27589 -4.19057,3.20673 -5.94922,5.79297 -3.20695,-5.1725 -7.60317,-7.75781 -13.18945,-7.75781 z m 70.50195,0 c -4.79317,0 -9.03488,0.93086 -12.72461,2.79296 -3.6897,1.82762 -6.34607,4.48205 -7.96679,7.96485 -1.62072,3.44834 -2.42969,8.17374 -2.42969,14.17383 v 20.017572 c 0,5.10353 0.36178,8.99976 1.08593,11.68946 0.72417,2.65521 2.01683,5.10429 3.87891,7.3457 1.89659,2.20693 4.53471,3.94677 7.91406,5.22265 3.37938,1.27589 7.2756,1.91407 11.68946,1.91407 4.55178,0 8.32808,-0.63818 11.32812,-1.91407 3.03453,-1.31036 5.53446,-3.2575 7.5,-5.84375 1.96555,-2.58624 3.20736,-5.01707 3.72461,-7.29296 0.55173,-2.2759 0.82813,-5.53591 0.82813,-9.77735 v -5.06836 H 350.6979 v 9.05078 c 0,3.41385 -0.2764,5.72473 -0.82813,6.93165 -0.51725,1.17243 -1.57003,1.75976 -3.15625,1.75976 -1.27588,0 -2.13765,-0.44914 -2.58593,-1.3457 -0.44828,-0.89657 -0.67188,-2.89651 -0.67188,-6 V 102.5713 h 27.05274 v -9.103512 c 0,-6.65527 -0.7764,-11.80962 -2.32813,-15.46484 -1.51727,-3.68971 -4.18993,-6.63878 -8.01758,-8.84571 -3.79316,-2.24142 -8.62027,-3.36132 -14.48242,-3.36132 z m 64.9668,0 c -5.75872,0.37932 -10.15688,3.79382 -13.19141,10.24218 l 0.82813,-9.00195 h -20.89649 v 68.640622 h 20.89649 V 108.5713 c 0,-6.65527 0.20728,-10.895042 0.62109,-12.722652 0.41379,-1.8621 1.51741,-3.3112 3.31055,-4.3457 1.79312,-1.0345 4.60399,-1.55274 8.43164,-1.55274 z m -266.79883,0.46484 c 2.82765,0 4.69133,0.43089 5.58789,1.29297 0.89656,0.86208 1.34375,2.72383 1.34375,5.58594 v 6.88086 c 0,3.10348 -0.39633,5.15428 -1.18945,6.15429 -0.75862,0.96553 -2.13863,1.44922 -4.13867,1.44922 -0.44828,0 -0.98281,-0.0182 -1.60352,-0.0527 z m 68.64063,0.77539 v 68.640622 h 21.51757 V 67.036148 Z m 224.48632,3.98438 V 106.6592 h -9.20703 z m -90.3125,6.92968 c 1.17243,0 1.94881,0.51823 2.32813,1.55274 0.37932,1.03448 0.56836,3.32712 0.56836,6.8789 v 5.01758 h -6.10352 v -5.01758 c 0,-3.86213 0.17275,-6.22385 0.51758,-7.08593 0.34483,-0.89656 1.24114,-1.34571 2.68945,-1.34571 z"
         transform="matrix(0.66571323,0,0,0.66571323,110.10447,73.875755)" />
    </g>
  </g>
</svg>
